<svg t="1660114465072" class="icon" viewBox="0 0 1024 1024" version="1.1" xmlns="http://www.w3.org/2000/svg" p-id="18165" width="200" height="200"><path d="M919.648639 14.367081H104.35447C54.751279 14.595574 14.595574 54.751279 14.367081 104.35447v815.294169a89.985835 89.985835 0 0 0 89.987389 89.985834h815.294169c49.603191-0.220721 89.765113-40.382643 89.985834-89.985834V104.35447c-0.220721-49.603191-40.382643-89.758896-89.985834-89.987389z m-84.251748 415.238648L646.414514 627.297265a50.095928 50.095928 0 0 1-37.169752 16.543205 50.074167 50.074167 0 0 1-37.14799-16.529216l-133.934212-138.692152-177.444257 182.247273a50.085047 50.085047 0 0 1-37.13711 16.513673 50.109917 50.109917 0 0 1-37.166643-16.543206 54.870966 54.870966 0 0 1 0.097926-76.005792l214.332666-220.132037a50.075721 50.075721 0 0 1 37.135556-16.515226 50.071058 50.071058 0 0 1 37.152653 16.535433l133.49277 138.639303 153.496013-159.481908c12.722553-13.59922 31.884879-18.966475 49.935827-13.916312 18.197059 5.190056 32.388496 19.763869 37.078044 38.044864 4.664677 18.571664-0.475639 37.845904-13.739114 51.600562z" p-id="18166" fill="#ffffff"></path></svg>