<svg t="1660181984518" class="icon" viewBox="0 0 1024 1024" version="1.1" xmlns="http://www.w3.org/2000/svg" p-id="3634" width="128" height="128"><path d="M49.548387 118.916129v786.167742c0 66.064516 52.851613 118.916129 118.916129 118.916129h683.767742c66.064516 0 118.916129-52.851613 118.916129-118.916129V118.916129c0-66.064516-52.851613-118.916129-118.916129-118.916129H171.767742C105.703226 0 49.548387 52.851613 49.548387 118.916129z m743.225807 617.703226H346.83871c-3.303226 0-6.606452-3.303226-6.606452-6.606452v-56.154838c0-3.303226 3.303226-6.606452 6.606452-6.606452h445.935484c3.303226 0 6.606452 3.303226 6.606451 6.606452v56.154838c0 3.303226-3.303226 6.606452-6.606451 6.606452z m0-211.406452h-561.548388c-3.303226 0-6.606452-3.303226-6.606451-6.606451v-49.548387c0-3.303226 3.303226-6.606452 6.606451-6.606452h561.548388c3.303226 0 6.606452 3.303226 6.606451 6.606452v49.548387c0 3.303226-3.303226 6.606452-6.606451 6.606451z m0-211.406451h-561.548388c-3.303226 0-6.606452-3.303226-6.606451-6.606452V251.045161c0-3.303226 3.303226-6.606452 6.606451-6.606451h561.548388c3.303226 0 6.606452 3.303226 6.606451 6.606451v56.154839c0 3.303226-3.303226 6.606452-6.606451 6.606452z m0 0" p-id="3635" fill="#ffffff"></path></svg>