<svg t="1660098816728" class="icon" viewBox="0 0 1024 1024" version="1.1" xmlns="http://www.w3.org/2000/svg" p-id="9018" width="200" height="200"><path d="M642.8 101.2H588c-17.6-22.7-45.1-37.4-76-37.4s-58.5 14.6-76 37.4h-53.9c-35.2 0-64 28.8-64 64v43.1c0 10.1 8.3 18.4 18.4 18.4h351.8c10.1 0 18.4-8.3 18.4-18.4v-43.1c0.1-35.2-28.7-64-63.9-64z" fill="#ffffff" opacity=".5" p-id="9019"></path><path d="M798.9 162.3h-92.2c0 1 0.1 2 0.1 3v43.1c0 10.1-8.3 18.4-18.4 18.4H336.5c-10.1 0-18.4-8.3-18.4-18.4v-43.1c0-1 0-2 0.1-3H226c-35.9 0-65.3 29.4-65.3 65.3V895c0 35.9 29.4 65.3 65.3 65.3h573c35.9 0 65.3-29.4 65.3-65.3V227.5c-0.1-35.9-29.5-65.2-65.4-65.2zM647.6 502.1L511.7 638c-12.4 12.4-32.8 12.4-45.2 0l-90.1-90c-12.4-12.4-12.4-32.8 0-45.2 12.4-12.4 32.8-12.4 45.2 0l67.5 67.5L602.4 457c12.4-12.4 32.8-12.4 45.2 0 12.4 12.3 12.4 32.7 0 45.1z" fill="#ffffff" p-id="9020"></path></svg>