<?xml version="1.0" standalone="no"?><!DOCTYPE svg PUBLIC "-//W3C//DTD SVG 1.1//EN" "http://www.w3.org/Graphics/SVG/1.1/DTD/svg11.dtd"><svg t="1655175790230" class="icon" viewBox="0 0 1024 1024" version="1.1" xmlns="http://www.w3.org/2000/svg" p-id="2844" xmlns:xlink="http://www.w3.org/1999/xlink" width="200" height="200"><defs><style type="text/css">@font-face { font-family: feedback-iconfont; src: url("//at.alicdn.com/t/font_1031158_u69w8yhxdu.woff2?t=1630033759944") format("woff2"), url("//at.alicdn.com/t/font_1031158_u69w8yhxdu.woff?t=1630033759944") format("woff"), url("//at.alicdn.com/t/font_1031158_u69w8yhxdu.ttf?t=1630033759944") format("truetype"); }
</style></defs><path d="M516.864 935.68c-109.4144 0-212.736-20.6336-290.9696-58.0608-85.4528-40.9088-132.5056-97.9456-132.5056-160.6144 0-64.512 49.4592-122.6752 139.264-163.7888 15.4112-7.0656 33.6384-0.256 40.704 15.1552s0.256 33.6384-15.1552 40.704c-65.6896 30.0544-103.3728 69.376-103.3728 107.9296 0 74.3424 148.6848 157.2352 362.0352 157.2352s362.0352-82.8416 362.0352-157.2352c0-74.3936-148.6848-157.2352-362.0352-157.2352-10.24 0-20.5312 0.2048-30.6176 0.5632-16.9472 0.9216-31.232-12.544-31.8976-29.4912a30.72 30.72 0 0 1 29.4912-31.8976c10.8544-0.4096 21.9648-0.6144 32.9728-0.6144 109.4144 0 212.736 20.6336 290.9696 58.0608 85.4528 40.9088 132.5056 97.9456 132.5056 160.6144s-47.0528 119.7056-132.5056 160.6144c-78.1824 37.4784-181.504 58.0608-290.9184 58.0608z" fill="#ffffff" p-id="2845"></path><path d="M438.3232 801.0752c-12.4416 0-24.1664-7.6288-28.7744-20.0192l-98.4064-264.0384c-2.048-3.328-3.4816-7.0656-4.096-11.0592L171.8272 143.2576l17.0496-13.9264c4.352-3.5328 107.9808-86.2208 266.24-56.8832 8.704 1.5872 17.3568 3.2256 25.9584 4.864 70.0416 13.2608 136.192 25.7536 188.0064 17.4592 35.84-5.7344 68.2496-25.8048 80.5376-34.1504a35.82976 35.82976 0 0 1 36.9664-2.0992 35.80928 35.80928 0 0 1 19.0976 31.6928v320.3584c0 10.752-4.7616 20.8384-13.056 27.6992a35.72224 35.72224 0 0 1-29.5936 7.5264c-27.2384-5.2736-170.0864-31.1296-306.7904-26.3168-74.8032 2.7136-86.3232 54.3744-87.9616 75.008l98.816 265.1136a30.70464 30.70464 0 0 1-18.0736 39.5264c-3.4816 1.28-7.1168 1.9456-10.7008 1.9456zM245.5552 165.1712l91.6992 246.016c22.3232-28.3136 58.9824-50.9952 116.8384-53.0432 114.6368-4.096 232.96 12.3904 290.1504 21.9648v-245.76c-18.6368 8.9088-41.1136 17.2032-65.3824 21.0944-62.4128 10.0352-133.6832-3.4816-209.152-17.7152-8.5504-1.6384-17.152-3.2256-25.7536-4.8128-95.744-17.7664-166.912 13.8752-198.4 32.256z" fill="#ffffff" p-id="2846"></path></svg>