<svg t="1660097880553" class="icon" viewBox="0 0 1024 1024" version="1.1" xmlns="http://www.w3.org/2000/svg" p-id="19322" width="200" height="200"><path d="M686.884571 508.342857l-177.225142-282.843428a31.488 31.488 0 0 0-3.364572-4.388572 31.963429 31.963429 0 0 0-50.285714-7.68L279.369143 384H159.963429a32 32 0 0 0 0 64h128a32.219429 32.219429 0 0 0 23.186285-9.910857 32.109714 32.109714 0 0 0 4.754286-3.657143l156.16-148.297143 179.565714 286.683429a31.963429 31.963429 0 0 0 56.32 12.141714l106.861715-136.96h113.152a32 32 0 1 0 0-64h-128a32.036571 32.036571 0 0 0-27.465143 15.579429l-1.206857 1.389714-84.48 107.373714zM64 0h896A64 64 0 0 1 1024 64v640A64 64 0 0 1 960 768H64A64 64 0 0 1 0 704V64A64 64 0 0 1 64 0z m128 896h640a64 64 0 1 1 0 128H192a64 64 0 1 1 0-128z" p-id="19323" fill="#ffffff"></path></svg>