<?xml version="1.0" standalone="no"?><!DOCTYPE svg PUBLIC "-//W3C//DTD SVG 1.1//EN" "http://www.w3.org/Graphics/SVG/1.1/DTD/svg11.dtd"><svg t="1660737257348" class="icon" viewBox="0 0 1024 1024" version="1.1" xmlns="http://www.w3.org/2000/svg" p-id="37230" xmlns:xlink="http://www.w3.org/1999/xlink" width="10" height="10"><defs><style type="text/css">@font-face { font-family: feedback-iconfont; src: url("//at.alicdn.com/t/font_1031158_u69w8yhxdu.woff2?t=1630033759944") format("woff2"), url("//at.alicdn.com/t/font_1031158_u69w8yhxdu.woff?t=1630033759944") format("woff"), url("//at.alicdn.com/t/font_1031158_u69w8yhxdu.ttf?t=1630033759944") format("truetype"); }
</style></defs><path d="M1008.64 902.144L545.28 83.968c-6.656-12.288-19.456-19.456-33.28-19.456s-26.624 7.68-33.28 19.456L15.36 902.144c-6.656 11.776-6.656 26.624 0 38.4s19.456 18.944 33.28 18.944h926.72c13.824 0 26.112-7.168 33.28-18.944s6.656-26.624 0-38.4zM512 798.72c-20.992 0-38.4-17.408-38.4-38.4s17.408-38.4 38.4-38.4 38.4 17.408 38.4 38.4c0 21.504-17.408 38.4-38.4 38.4z m38.4-162.304c0 20.992-17.408 38.4-38.4 38.4s-38.4-17.408-38.4-38.4V419.84c0-20.992 17.408-38.4 38.4-38.4s38.4 17.408 38.4 38.4v216.576z" p-id="37231" fill="#ffffff"></path></svg>