<?xml version="1.0" standalone="no"?><!DOCTYPE svg PUBLIC "-//W3C//DTD SVG 1.1//EN" "http://www.w3.org/Graphics/SVG/1.1/DTD/svg11.dtd"><svg t="1656992813032" class="icon" viewBox="0 0 1024 1024" version="1.1" xmlns="http://www.w3.org/2000/svg" p-id="2778" width="200" height="200" xmlns:xlink="http://www.w3.org/1999/xlink"><defs><style type="text/css">@font-face { font-family: feedback-iconfont; src: url("//at.alicdn.com/t/font_1031158_u69w8yhxdu.woff2?t=1630033759944") format("woff2"), url("//at.alicdn.com/t/font_1031158_u69w8yhxdu.woff?t=1630033759944") format("woff"), url("//at.alicdn.com/t/font_1031158_u69w8yhxdu.ttf?t=1630033759944") format("truetype"); }
</style></defs><path d="M276.606873 204.8h438.581132a32.201258 32.201258 0 0 0 0-64.402516H276.606873a32.201258 32.201258 0 0 0 0 64.402516zM164.546496 370.958491h551.285534a32.845283 32.845283 0 0 0 32.201258-32.201258 32.201258 32.201258 0 0 0-32.201258-32.201258H164.546496a32.201258 32.201258 0 0 0-32.201258 32.201258 32.201258 32.201258 0 0 0 32.201258 32.201258zM164.546496 536.472956h278.218868a32.201258 32.201258 0 0 0 32.201257-32.201258 32.201258 32.201258 0 0 0-32.201257-32.201258H164.546496a32.201258 32.201258 0 0 0-32.201258 32.201258 32.201258 32.201258 0 0 0 32.201258 32.201258zM164.546496 702.631447h181.615094a32.201258 32.201258 0 0 0 0-64.402516H164.546496a32.201258 32.201258 0 0 0 0 64.402516zM374.498697 792.794969H164.546496a32.201258 32.201258 0 0 0-32.201258 32.201257 32.201258 32.201258 0 0 0 32.201258 32.201258h209.952201a32.201258 32.201258 0 0 0 32.201258-32.201258 32.201258 32.201258 0 0 0-32.201258-32.201257z" p-id="2779" fill="#ffffff"></path><path d="M500.083603 747.069182a244.72956 244.72956 0 0 1 73.418867-153.922012 261.474214 261.474214 0 0 1 222.18868-72.130818 41.21761 41.21761 0 0 0 33.489308-5.796226 41.861635 41.861635 0 0 0 13.524528-30.913208l-4.508176-408.311949A73.418868 73.418868 0 0 0 765.421967 0H108.516307A73.418868 73.418868 0 0 0 35.741464 72.774843v878.450314a73.418868 73.418868 0 0 0 72.774843 72.774843h450.81761a40.573585 40.573585 0 0 0 26.405031-70.842767 240.865409 240.865409 0 0 1-85.655345-206.088051z m-391.567296 212.528302a8.372327 8.372327 0 0 1-8.372327-8.372327V72.774843A8.372327 8.372327 0 0 1 108.516307 64.402516h656.90566a8.372327 8.372327 0 0 1 8.372327 8.372327l4.508176 381.262893a327.808805 327.808805 0 0 0-249.237735 92.739622 307.2 307.2 0 0 0-27.693082 412.820126z" p-id="2780" fill="#ffffff"></path><path d="M887.142722 768.966038h-112.704403v-113.348428a22.540881 22.540881 0 0 0-22.54088-22.54088 22.540881 22.540881 0 0 0-22.540881 22.54088v135.889308a23.828931 23.828931 0 0 0 6.440252 16.100629 23.184906 23.184906 0 0 0 16.100629 6.440252h135.245283a22.540881 22.540881 0 0 0 0-45.081761z" p-id="2781" fill="#ffffff"></path><path d="M757.693665 543.557233A230.561006 230.561006 0 1 0 988.254672 772.830189a229.916981 229.916981 0 0 0-230.561007-229.272956z m0 396.075471A166.158491 166.158491 0 1 1 923.852156 772.830189a165.514465 165.514465 0 0 1-166.158491 166.802515z" p-id="2782" fill="#ffffff"></path></svg>