<?xml version="1.0" standalone="no"?><!DOCTYPE svg PUBLIC "-//W3C//DTD SVG 1.1//EN" "http://www.w3.org/Graphics/SVG/1.1/DTD/svg11.dtd"><svg t="1656989416622" class="icon" viewBox="0 0 1024 1024" version="1.1" xmlns="http://www.w3.org/2000/svg" p-id="2372" xmlns:xlink="http://www.w3.org/1999/xlink" width="200" height="200"><defs><style type="text/css">@font-face { font-family: feedback-iconfont; src: url("//at.alicdn.com/t/font_1031158_u69w8yhxdu.woff2?t=1630033759944") format("woff2"), url("//at.alicdn.com/t/font_1031158_u69w8yhxdu.woff?t=1630033759944") format("woff"), url("//at.alicdn.com/t/font_1031158_u69w8yhxdu.ttf?t=1630033759944") format("truetype"); }
</style></defs><path d="M885.299374 685.912042h-4.434447c11.281169-66.789064-4.452877-131.739229-41.974179-175.634217 11.229974-15.900939 17.836082-35.288208 17.836083-56.191851 0-53.834866-43.80079-97.635657-97.635657-97.635656s-97.635657 43.80079-97.635657 97.635656 43.80079 97.635657 97.635657 97.635657c12.569216 0 24.590654-2.388724 35.636329-6.735117 25.458909 29.101893 42.347897 80.080119 29.141824 140.925528H701.839602v-65.263475c0-10.608476-5.987681-20.314909-15.475003-25.044235l-194.613979-97.252723 57.79935-84.074296a28.086198 28.086198 0 0 0 4.921817-15.857936V259.691107c0-92.13944-73.793463-164.292639-168.011391-164.29264S218.449006 167.551666 218.449006 259.691107v138.729294a27.931592 27.931592 0 0 0 5.195194 16.240869l59.357704 83.472251L79.937799 595.385221a28.025789 28.025789 0 0 0-15.912202 25.263346l-0.902043 190.759051c0 40.027773 32.563649 72.590398 72.590398 72.590398h749.585422c40.027773 0 72.590398-32.563649 72.590398-72.590398v-52.932823c0-40.000128-32.563649-72.562753-72.590398-72.562753zM717.451805 454.085974c0-22.966772 18.673621-41.640392 41.640393-41.640392s41.640392 18.673621 41.640392 41.640392c0 22.966772-18.673621 41.640392-41.640392 41.640393s-41.640392-18.673621-41.640393-41.640393z m-380.26077 80.191723a27.945926 27.945926 0 0 0 15.010158-18.264067 27.918281 27.918281 0 0 0-4.292127-23.240149L274.443246 389.47881V259.691107c0-60.724591 49.214072-108.298399 112.01715-108.298399S498.476523 198.965492 498.476523 259.691107v130.03446L427.389188 493.157438a27.874254 27.874254 0 0 0-4.018749 22.857216c2.023197 7.847057 7.326923 14.435759 14.572959 18.044955L645.845361 637.955301v47.956741H135.713952c-5.388708 0-10.636121 0.608188-15.694114 1.727294V638.282944l217.171197-104.005247z m564.704497 277.129921c0 9.159678-7.436479 16.596157-16.596158 16.596158H135.713952c-9.159678 0-16.596157-7.436479-16.596157-16.596158v-50.580959h0.902043v-7.695522c2.23207-6.51703 8.411218-11.224855 15.694114-11.224855h749.585422c9.159678 0 16.596157 7.436479 16.596158 16.568513v52.932823z" fill="#ffffff" p-id="2373"></path></svg>