<svg t="1660099863027" class="icon" viewBox="0 0 1024 1024" version="1.1" xmlns="http://www.w3.org/2000/svg" p-id="6529" width="200" height="200"><path d="M836.266667 34.133333H187.733333C136.533333 34.133333 93.866667 76.8 93.866667 128v768c0 51.2 42.666667 93.866667 93.866666 93.866667h648.533334c51.2 0 93.866667-42.666667 93.866666-93.866667v-768C930.133333 76.8 887.466667 34.133333 836.266667 34.133333zM428.373333 769.706667h-158.72c-18.773333 0-34.133333-15.36-34.133333-34.133334s15.36-34.133333 34.133333-34.133333h158.72c18.773333 0 34.133333 15.36 34.133334 34.133333s-15.36 34.133333-34.133334 34.133334z m0-153.6h-158.72c-18.773333 0-34.133333-15.36-34.133333-34.133334s15.36-34.133333 34.133333-34.133333h158.72c18.773333 0 34.133333 15.36 34.133334 34.133333s-15.36 34.133333-34.133334 34.133334z m302.08 42.666666c18.773333 0 34.133333 15.36 34.133334 34.133334s-15.36 34.133333-34.133334 34.133333h-51.2v56.32c0 18.773333-15.36 34.133333-34.133333 34.133333s-34.133333-15.36-34.133333-34.133333v-56.32h-51.2c-18.773333 0-34.133333-15.36-34.133334-34.133333s15.36-34.133333 34.133334-34.133334h51.2v-22.186666h-51.2c-18.773333 0-34.133333-15.36-34.133334-34.133334s15.36-34.133333 34.133334-34.133333h15.36l-27.306667-34.133333c-11.946667-15.36-8.533333-35.84 5.12-47.786667 15.36-11.946667 35.84-8.533333 47.786667 5.12l44.373333 56.32 44.373333-56.32c11.946667-15.36 32.426667-17.066667 47.786667-5.12 15.36 11.946667 17.066667 32.426667 5.12 47.786667l-27.306667 34.133333h15.36c18.773333 0 34.133333 15.36 34.133334 34.133333s-15.36 34.133333-34.133334 34.133334h-51.2v22.186666h51.2z m40.96-273.066666c0 10.24-6.826667 17.066667-17.066666 17.066666H269.653333c-10.24 0-17.066667-6.826667-17.066666-17.066666V238.933333c0-10.24 6.826667-17.066667 17.066666-17.066666h482.986667c10.24 0 17.066667 6.826667 17.066667 17.066666v146.773334z" fill="#ffffff" p-id="6530"></path></svg>