<?xml version="1.0" standalone="no"?><!DOCTYPE svg PUBLIC "-//W3C//DTD SVG 1.1//EN" "http://www.w3.org/Graphics/SVG/1.1/DTD/svg11.dtd"><svg t="1657795350624" class="icon" viewBox="0 0 1024 1024" version="1.1" xmlns="http://www.w3.org/2000/svg" p-id="7439" xmlns:xlink="http://www.w3.org/1999/xlink" width="10" height="10"><defs><style type="text/css">@font-face { font-family: feedback-iconfont; src: url("//at.alicdn.com/t/font_1031158_u69w8yhxdu.woff2?t=1630033759944") format("woff2"), url("//at.alicdn.com/t/font_1031158_u69w8yhxdu.woff?t=1630033759944") format("woff"), url("//at.alicdn.com/t/font_1031158_u69w8yhxdu.ttf?t=1630033759944") format("truetype"); }
</style></defs><path d="M128 128v768h768V128z m704 704H192V192h640z" fill="#ffffff" p-id="7440"></path><path d="M517.12 315.36l-45.28-45.28-100.64 100.64-60.64-60.48-45.12 45.28 105.76 105.76 145.92-145.92zM692.8 586.56l-47.36 47.52-48.48-48.48-45.28 45.28 48.48 48.32-51.36 51.52 45.12 45.28 51.52-51.52 50.4 50.56 45.28-45.28-50.4-50.56 47.36-47.36-45.28-45.28zM297.456 681.36l384-383.984 45.248 45.264-384 383.984z" fill="#ffffff" p-id="7441"></path></svg>