<?xml version="1.0" standalone="no"?><!DOCTYPE svg PUBLIC "-//W3C//DTD SVG 1.1//EN" "http://www.w3.org/Graphics/SVG/1.1/DTD/svg11.dtd"><svg t="1660527479864" class="icon" viewBox="0 0 1024 1024" version="1.1" xmlns="http://www.w3.org/2000/svg" p-id="91902" xmlns:xlink="http://www.w3.org/1999/xlink" width="10" height="10"><defs><style type="text/css">@font-face { font-family: feedback-iconfont; src: url("//at.alicdn.com/t/font_1031158_u69w8yhxdu.woff2?t=1630033759944") format("woff2"), url("//at.alicdn.com/t/font_1031158_u69w8yhxdu.woff?t=1630033759944") format("woff"), url("//at.alicdn.com/t/font_1031158_u69w8yhxdu.ttf?t=1630033759944") format("truetype"); }
</style></defs><path d="M663.8 158.2c-12.2 12.9-19.6 30.3-19.6 49.4v126.2c0 8.7 1.6 17.3 4.7 25.5L838.4 861c0.3 0.8 0.8 2-0.6 4-1.1 1.5-3.2 3.4-7.2 3.4H194.8c-4 0-6.1-1.8-7.1-3.3-1.3-1.9-0.9-3.2-0.6-4L374.8 359c3-8.1 4.6-16.6 4.6-25.2V207.6c0-19.1-7.5-36.5-19.6-49.4h304m55.7-60H304.7c-26.9 0-48.7 21.8-48.7 48.7 0 26.9 21.8 48.7 48.7 48.7h2.6c6.6 0 12 5.4 12 12v126.2c0 1.4-0.3 2.9-0.8 4.2L130.8 839.9c-16.1 43 16.8 88.3 63.9 88.3h635.9c47.3 0 80.1-45.6 63.9-88.6L704.9 338.1c-0.5-1.4-0.8-2.8-0.8-4.2V207.6c0-6.6 5.4-12 12-12h3.3c26.9 0 48.7-21.8 48.7-48.7 0-26.9-21.7-48.7-48.6-48.7z" p-id="91903" fill="#ffffff"></path><path d="M792.9 570.7c-17.4 12.6-39.2 26.6-63.7 39.1-81 41.1-153.7 46.6-215.9 16.3-42.6-20.7-89.3-33.6-138.9-38.3-39.2-3.7-80.3-2.3-122.1 4.2-10.8 1.7-21.1 3.6-30.8 5.7l-25.6 68.4c17.9-5.4 41-11.1 67.4-15.1 83-12.6 158.2-2.8 223.7 29.1 34.5 16.8 71.5 25.2 110.5 25.2 11.5 0 23.3-0.7 35.1-2.2 40.4-5 82.5-18.7 125.2-40.5 21.2-10.9 40.4-22.6 56.9-33.9l-21.8-58z" p-id="91904" fill="#ffffff"></path></svg>