<?xml version="1.0" standalone="no"?><!DOCTYPE svg PUBLIC "-//W3C//DTD SVG 1.1//EN" "http://www.w3.org/Graphics/SVG/1.1/DTD/svg11.dtd"><svg t="1655898066866" class="icon" viewBox="0 0 1024 1024" version="1.1" xmlns="http://www.w3.org/2000/svg" p-id="3093" xmlns:xlink="http://www.w3.org/1999/xlink" width="200" height="200"><defs><style type="text/css">@font-face { font-family: feedback-iconfont; src: url("//at.alicdn.com/t/font_1031158_u69w8yhxdu.woff2?t=1630033759944") format("woff2"), url("//at.alicdn.com/t/font_1031158_u69w8yhxdu.woff?t=1630033759944") format("woff"), url("//at.alicdn.com/t/font_1031158_u69w8yhxdu.ttf?t=1630033759944") format("truetype"); }
</style></defs><path d="M901.12 89.2928H122.88c-39.3216 0-71.68 32.3584-71.68 71.68v702.464c0 39.3216 32.3584 71.68 71.68 71.68h778.24c39.3216 0 71.68-32.3584 71.68-71.68V160.9728c0-39.7312-32.3584-71.68-71.68-71.68z m-788.48 311.296h798.72v186.368h-798.72V400.5888z m10.24-249.856h778.24c5.7344 0 10.24 4.5056 10.24 10.24v176.128h-798.72v-176.128c0-5.7344 4.5056-10.24 10.24-10.24z m778.24 722.944H122.88c-5.7344 0-10.24-4.5056-10.24-10.24v-215.04h798.72v215.04c0 5.3248-4.5056 10.24-10.24 10.24z" fill="#ffffff" p-id="3094"></path><path d="M208.896 758.9888m-40.96 0a40.96 40.96 0 1 0 81.92 0 40.96 40.96 0 1 0-81.92 0Z" fill="#ffffff" p-id="3095"></path><path d="M331.776 758.9888m-40.96 0a40.96 40.96 0 1 0 81.92 0 40.96 40.96 0 1 0-81.92 0Z" fill="#ffffff" p-id="3096"></path><path d="M802.816 724.1728h-135.168c-16.7936 0-30.72 13.9264-30.72 30.72s13.9264 30.72 30.72 30.72h135.168c16.7936 0 30.72-13.9264 30.72-30.72s-13.9264-30.72-30.72-30.72zM780.288 464.0768h-536.576c-16.7936 0-30.72 13.9264-30.72 30.72s13.9264 30.72 30.72 30.72h536.576c16.7936 0 30.72-13.9264 30.72-30.72s-13.9264-30.72-30.72-30.72zM243.712 271.5648h536.576c16.7936 0 30.72-13.9264 30.72-30.72s-13.9264-30.72-30.72-30.72h-536.576c-16.7936 0-30.72 13.9264-30.72 30.72s13.9264 30.72 30.72 30.72z" fill="#ffffff" p-id="3097"></path></svg>