<svg t="1660115482502" class="icon" viewBox="0 0 1365 1024" version="1.1" xmlns="http://www.w3.org/2000/svg" p-id="25919" width="200" height="200"><path d="M1269.191111 0H96.142222A96.142222 96.142222 0 0 0 0 96.142222v831.715556A96.142222 96.142222 0 0 0 96.142222 1024h1173.048889A96.142222 96.142222 0 0 0 1365.333333 927.857778V96.142222A96.142222 96.142222 0 0 0 1269.191111 0zM597.333333 757.191111A96.142222 96.142222 0 0 1 501.191111 853.333333H266.808889A96.142222 96.142222 0 0 1 170.666667 757.191111v-117.191111a213.333333 213.333333 0 0 1 93.866666-176.924444 170.666667 170.666667 0 1 1 238.933334 0 213.333333 213.333333 0 0 1 93.866666 176.924444z m378.88 21.617778h-245.76a47.786667 47.786667 0 0 1 0-96.142222h245.191111a47.786667 47.786667 0 0 1 0 96.142222z m85.333334-218.453333h-331.093334a47.786667 47.786667 0 0 1 0-96.142223h330.524445a47.786667 47.786667 0 0 1 0 96.142223zM1146.88 341.333333h-416.426667a47.786667 47.786667 0 0 1 0-96.142222h415.857778a47.786667 47.786667 0 0 1 0 96.142222z" fill="#ffffff" p-id="25920"></path><path d="M384 522.808889a117.191111 117.191111 0 0 0-117.191111 117.191111V750.933333a6.826667 6.826667 0 0 0 6.826667 6.826667H494.933333a6.826667 6.826667 0 0 0 6.826667-6.826667v-104.106666-5.12a117.191111 117.191111 0 0 0-117.76-118.897778z" fill="#ffffff" p-id="25921"></path><path d="M384 341.333333m-74.524444 0a74.524444 74.524444 0 1 0 149.048888 0 74.524444 74.524444 0 1 0-149.048888 0Z" fill="#ffffff" p-id="25922"></path></svg>