<?xml version="1.0" standalone="no"?><!DOCTYPE svg PUBLIC "-//W3C//DTD SVG 1.1//EN" "http://www.w3.org/Graphics/SVG/1.1/DTD/svg11.dtd"><svg t="1660737106944" class="icon" viewBox="0 0 1024 1024" version="1.1" xmlns="http://www.w3.org/2000/svg" p-id="34024" xmlns:xlink="http://www.w3.org/1999/xlink" width="10" height="10"><defs><style type="text/css">@font-face { font-family: feedback-iconfont; src: url("//at.alicdn.com/t/font_1031158_u69w8yhxdu.woff2?t=1630033759944") format("woff2"), url("//at.alicdn.com/t/font_1031158_u69w8yhxdu.woff?t=1630033759944") format("woff"), url("//at.alicdn.com/t/font_1031158_u69w8yhxdu.ttf?t=1630033759944") format("truetype"); }
</style></defs><path d="M317.0304 778.51306667c10.37653333 0 20.75306667-3.82293333 28.94506667-12.01493334 15.83786667-15.83786667 15.83786667-42.05226667 0-57.89013333L157.01333333 519.64586667c-15.83786667-15.83786667-42.05226667-15.83786667-57.89013333 0-15.83786667 15.83786667-15.83786667 42.05226667 0 57.89013333L288.08533333 766.49813333c8.192 8.192 18.56853333 12.01493333 28.94506667 12.01493334z" p-id="34025" fill="#ffffff"></path><path d="M895.3856 898.11626667h-224.4608c53.52106667-56.25173333 93.3888-129.97973333 93.3888-204.8 0-72.0896-28.39893333-126.70293333-50.24426667-158.37866667 14.19946667-21.84533333 22.9376-48.05973333 22.9376-76.45866667 0-23.48373333-6.00746667-45.8752-16.93013333-66.08213333l83.5584-83.5584c12.01493333-12.01493333 18.56853333-27.8528 18.56853333-44.2368s-6.5536-32.768-18.56853333-44.2368l-157.83253333-157.83253333c-12.01493333-12.01493333-27.8528-18.56853333-44.2368-18.56853334s-32.768 6.5536-44.2368 18.56853334L211.08053333 408.7808c-12.01493333 12.01493333-18.56853333 27.8528-18.56853333 44.2368 0 16.93013333 6.5536 32.768 18.56853333 44.2368l157.83253334 157.83253333c12.01493333 12.01493333 28.39893333 18.56853333 44.2368 18.56853334 15.83786667 0 32.22186667-6.00746667 44.2368-18.56853334l74.27413333-74.27413333c19.6608 10.92266667 42.05226667 16.93013333 66.08213333 16.93013333 18.56853333 0 36.59093333-3.82293333 52.97493334-10.37653333 14.19946667 22.39146667 31.67573333 59.52853333 31.67573333 105.94986667 0 78.6432-72.0896 164.93226667-141.44853333 204.8H163.56693333c-22.39146667 0-40.96 18.56853333-40.96 40.96s18.56853333 40.96 40.96 40.96h731.81866667c22.39146667 0 40.96-18.56853333 40.96-40.96s-18.0224-40.96-40.96-40.96z m-482.23573333-314.02666667l-131.072-131.072 319.488-319.488 131.072 131.072-70.99733334 70.99733333c-19.6608-10.37653333-41.50613333-15.83786667-63.8976-15.83786666-77.0048 0-139.264 62.2592-139.264 139.264 0 22.9376 5.46133333 44.78293333 15.83786667 63.8976l-61.16693333 61.16693333z m127.24906666-125.61066667c0-31.67573333 25.66826667-57.344 57.344-57.344 13.65333333 0 27.30666667 4.9152 37.6832 14.19946667 12.56106667 10.92266667 19.6608 26.76053333 19.6608 43.14453333 0 16.93013333-7.64586667 32.768-19.6608 43.14453334-0.54613333 0.54613333-1.09226667 1.09226667-2.18453333 1.6384-9.8304 7.64586667-22.39146667 12.56106667-35.49866667 12.56106666-31.67573333 0-57.344-25.66826667-57.344-57.344z" p-id="34026" fill="#ffffff"></path></svg>