<?xml version="1.0" standalone="no"?><!DOCTYPE svg PUBLIC "-//W3C//DTD SVG 1.1//EN" "http://www.w3.org/Graphics/SVG/1.1/DTD/svg11.dtd"><svg t="1657938931806" class="icon" viewBox="0 0 1024 1024" version="1.1" xmlns="http://www.w3.org/2000/svg" p-id="1850" xmlns:xlink="http://www.w3.org/1999/xlink" width="10" height="10"><defs><style type="text/css">@font-face { font-family: feedback-iconfont; src: url("//at.alicdn.com/t/font_1031158_u69w8yhxdu.woff2?t=1630033759944") format("woff2"), url("//at.alicdn.com/t/font_1031158_u69w8yhxdu.woff?t=1630033759944") format("woff"), url("//at.alicdn.com/t/font_1031158_u69w8yhxdu.ttf?t=1630033759944") format("truetype"); }
</style></defs><path d="M791.272727 162.909091h-74.472727l-76.8-76.8c-4.654545-4.654545-11.636364-6.981818-18.618182-6.981818H232.727273c-39.563636 0-69.818182 32.581818-69.818182 69.818182V791.272727c0 39.563636 32.581818 69.818182 69.818182 69.818182h13.963636v13.963636c0 39.563636 32.581818 69.818182 69.818182 69.818182H791.272727c39.563636 0 69.818182-32.581818 69.818182-69.818182V232.727273c0-39.563636-30.254545-69.818182-69.818182-69.818182z m-144.290909 9.309091l32.581818 32.581818h-18.618181c-9.309091 0-13.963636-6.981818-13.963637-13.963636v-18.618182zM218.763636 791.272727V146.618182c0-6.981818 6.981818-13.963636 13.963637-13.963637h358.4v58.181819c0 39.563636 32.581818 69.818182 69.818182 69.818181h58.181818V791.272727c0 6.981818-6.981818 13.963636-13.963637 13.963637H232.727273c-6.981818 0-13.963636-6.981818-13.963637-13.963637z m586.472728 86.109091c0 6.981818-6.981818 13.963636-13.963637 13.963637H318.836364c-6.981818 0-13.963636-6.981818-13.963637-13.963637V861.090909h400.290909c39.563636 0 69.818182-32.581818 69.818182-69.818182V232.727273c0-4.654545-2.327273-9.309091-4.654545-13.963637h20.945454c9.309091 0 13.963636 6.981818 13.963637 13.963637v644.654545z" fill="#ffffff" p-id="1851"></path><path d="M614.4 586.472727h-76.8v-148.945454c34.909091-20.945455 58.181818-60.509091 58.181818-102.4 0-67.490909-53.527273-121.018182-121.018182-121.018182s-121.018182 53.527273-121.018181 121.018182c0 41.890909 23.272727 81.454545 58.181818 102.4v148.945454h-76.8c-16.290909 0-27.927273 11.636364-27.927273 27.927273v69.818182c0 16.290909 11.636364 27.927273 27.927273 27.927273h279.272727c16.290909 0 27.927273-11.636364 27.927273-27.927273v-69.818182c0-16.290909-13.963636-27.927273-27.927273-27.927273z m-27.927273 69.818182h-223.418182v-13.963636h76.8c16.290909 0 27.927273-11.636364 27.927273-27.927273v-193.163636c0-11.636364-6.981818-20.945455-16.290909-25.6-25.6-9.309091-41.890909-32.581818-41.890909-60.509091 0-34.909091 30.254545-65.163636 65.163636-65.163637s65.163636 30.254545 65.163637 65.163637c0 25.6-16.290909 51.2-41.890909 60.509091-11.636364 4.654545-16.290909 13.963636-16.290909 25.6v193.163636c0 16.290909 11.636364 27.927273 27.927272 27.927273h76.8v13.963636z" fill="#ffffff" p-id="1852"></path></svg>