<?xml version="1.0" standalone="no"?><!DOCTYPE svg PUBLIC "-//W3C//DTD SVG 1.1//EN" "http://www.w3.org/Graphics/SVG/1.1/DTD/svg11.dtd"><svg t="1659954065877" class="icon" viewBox="0 0 1024 1024" version="1.1" xmlns="http://www.w3.org/2000/svg" p-id="6126" xmlns:xlink="http://www.w3.org/1999/xlink" width="10" height="10"><defs><style type="text/css">@font-face { font-family: feedback-iconfont; src: url("//at.alicdn.com/t/font_1031158_u69w8yhxdu.woff2?t=1630033759944") format("woff2"), url("//at.alicdn.com/t/font_1031158_u69w8yhxdu.woff?t=1630033759944") format("woff"), url("//at.alicdn.com/t/font_1031158_u69w8yhxdu.ttf?t=1630033759944") format("truetype"); }
</style></defs><path d="M62.72 89.6c6.4 0 12.8-2.56 17.92-7.68C99.84 62.72 125.44 51.2 153.6 51.2h58.88c14.08 0 25.6-11.52 25.6-25.6s-11.52-25.6-25.6-25.6H153.6C112.64 0 72.96 16.64 43.52 46.08c-10.24 10.24-10.24 26.88 0 35.84 6.4 5.12 12.8 7.68 19.2 7.68zM25.6 719.36c14.08 0 25.6-11.52 25.6-25.6V533.76c0-14.08-11.52-25.6-25.6-25.6s-25.6 11.52-25.6 25.6v160c0 14.08 11.52 25.6 25.6 25.6zM25.6 399.36c14.08 0 25.6-11.52 25.6-25.6V213.76c0-14.08-11.52-25.6-25.6-25.6s-25.6 11.52-25.6 25.6v160c0 14.08 11.52 25.6 25.6 25.6zM372.48 51.2h160c14.08 0 25.6-11.52 25.6-25.6s-11.52-25.6-25.6-25.6H372.48c-14.08 0-25.6 11.52-25.6 25.6s10.24 25.6 25.6 25.6zM691.2 51.2c43.52 0 83.2 28.16 97.28 70.4 3.84 10.24 14.08 17.92 24.32 17.92 2.56 0 5.12 0 7.68-1.28 12.8-3.84 20.48-19.2 16.64-32-20.48-64-79.36-106.24-144.64-106.24-14.08 0-25.6 11.52-25.6 25.6s10.24 25.6 24.32 25.6zM108.8 962.56C74.24 945.92 51.2 908.8 51.2 870.4v-16.64c0-14.08-11.52-25.6-25.6-25.6s-25.6 11.52-25.6 25.6V870.4c0 58.88 34.56 112.64 87.04 138.24 3.84 1.28 7.68 2.56 11.52 2.56 8.96 0 19.2-5.12 23.04-14.08 5.12-12.8 0-28.16-12.8-34.56zM416 972.8H256c-14.08 0-25.6 11.52-25.6 25.6s11.52 25.6 25.6 25.6h160c14.08 0 25.6-11.52 25.6-25.6s-11.52-25.6-25.6-25.6zM211.2 192H153.6c-14.08 0-25.6 11.52-25.6 25.6s11.52 25.6 25.6 25.6h57.6c14.08 0 25.6-11.52 25.6-25.6s-11.52-25.6-25.6-25.6zM326.4 243.2H384c14.08 0 25.6-11.52 25.6-25.6s-11.52-25.6-25.6-25.6h-57.6c-14.08 0-25.6 11.52-25.6 25.6s11.52 25.6 25.6 25.6zM204.8 448h-51.2c-14.08 0-25.6 11.52-25.6 25.6s11.52 25.6 25.6 25.6h51.2c14.08 0 25.6-11.52 25.6-25.6s-11.52-25.6-25.6-25.6zM844.8 335.36v-62.72c0-14.08-11.52-25.6-25.6-25.6s-25.6 11.52-25.6 25.6v37.12c-43.52-17.92-90.88-28.16-140.8-28.16-204.8 0-371.2 166.4-371.2 371.2 0 170.24 115.2 313.6 271.36 357.12 3.84 7.68 12.8 14.08 23.04 14.08h76.8c204.8 0 371.2-166.4 371.2-371.2 0-134.4-71.68-252.16-179.2-317.44zM652.8 972.8c-176.64 0-320-143.36-320-320s143.36-320 320-320 320 143.36 320 320-143.36 320-320 320z" fill="#ffffff" p-id="6127"></path><path d="M806.4 499.2c-10.24-10.24-25.6-10.24-35.84 0L652.8 616.96 535.04 499.2c-10.24-10.24-25.6-10.24-35.84 0-10.24 10.24-10.24 25.6 0 35.84l117.76 117.76-117.76 117.76c-10.24 10.24-10.24 25.6 0 35.84 5.12 5.12 11.52 7.68 17.92 7.68s12.8-2.56 17.92-7.68l117.76-117.76 117.76 117.76c5.12 5.12 11.52 7.68 17.92 7.68s12.8-2.56 17.92-7.68c10.24-10.24 10.24-25.6 0-35.84L688.64 652.8l117.76-117.76c10.24-10.24 10.24-25.6 0-35.84z" fill="#ffffff" p-id="6128"></path></svg>