<?xml version="1.0" standalone="no"?><!DOCTYPE svg PUBLIC "-//W3C//DTD SVG 1.1//EN" "http://www.w3.org/Graphics/SVG/1.1/DTD/svg11.dtd"><svg t="1658279405355" class="icon" viewBox="0 0 1024 1024" version="1.1" xmlns="http://www.w3.org/2000/svg" p-id="1367" xmlns:xlink="http://www.w3.org/1999/xlink" width="10" height="10"><defs><style type="text/css">@font-face { font-family: feedback-iconfont; src: url("//at.alicdn.com/t/font_1031158_u69w8yhxdu.woff2?t=1630033759944") format("woff2"), url("//at.alicdn.com/t/font_1031158_u69w8yhxdu.woff?t=1630033759944") format("woff"), url("//at.alicdn.com/t/font_1031158_u69w8yhxdu.ttf?t=1630033759944") format("truetype"); }
</style></defs><path d="M65.090461 127.584794l0 768.82939 893.819079 0L958.909539 127.584794 65.090461 127.584794zM908.126946 844.657402 115.9058 844.657402l0-655.048997L908.126946 189.608406 908.126946 844.657402z" p-id="1368" fill="#ffffff"></path><path d="M301.136501 430.196903l-101.551884 0 0-99.100042 101.551884 0L301.136501 430.196903z" p-id="1369" fill="#ffffff"></path><path d="M834.209446 392.175961 334.880023 392.175961l0-20.400632 499.329423 0L834.209446 392.175961z" p-id="1370" fill="#ffffff"></path><path d="M301.136501 586.110905l-101.551884 0 0-99.100042 101.551884 0L301.136501 586.110905z" p-id="1371" fill="#ffffff"></path><path d="M834.209446 547.982516 334.880023 547.982516l0-20.273742 499.329423 0L834.209446 547.982516z" p-id="1372" fill="#ffffff"></path><path d="M301.136501 742.002394l-101.551884 0 0-99.141998 101.551884 0L301.136501 742.002394z" p-id="1373" fill="#ffffff"></path><path d="M834.209446 703.895495 334.880023 703.895495l0-20.314675 499.329423 0L834.209446 703.895495z" p-id="1374" fill="#ffffff"></path></svg>