<?xml version="1.0" standalone="no"?><!DOCTYPE svg PUBLIC "-//W3C//DTD SVG 1.1//EN" "http://www.w3.org/Graphics/SVG/1.1/DTD/svg11.dtd"><svg t="1658381615330" class="icon" viewBox="0 0 1024 1024" version="1.1" xmlns="http://www.w3.org/2000/svg" p-id="3612" xmlns:xlink="http://www.w3.org/1999/xlink" width="10" height="10"><defs><style type="text/css">@font-face { font-family: feedback-iconfont; src: url("//at.alicdn.com/t/font_1031158_u69w8yhxdu.woff2?t=1630033759944") format("woff2"), url("//at.alicdn.com/t/font_1031158_u69w8yhxdu.woff?t=1630033759944") format("woff"), url("//at.alicdn.com/t/font_1031158_u69w8yhxdu.ttf?t=1630033759944") format("truetype"); }
</style></defs><path d="M624 960H208c-44.1 0-80-35.9-80-80V176c0-44.1 35.9-80 80-80h80c8.8 0 16 7.2 16 16s-7.2 16-16 16h-80c-26.5 0-48 21.5-48 48v704c0 26.5 21.5 48 48 48h416c8.8 0 16 7.2 16 16s-7.2 16-16 16zM720 960h-32c-8.8 0-16-7.2-16-16s7.2-16 16-16h32c8.8 0 16 7.2 16 16s-7.2 16-16 16zM816 960h-32c-8.8 0-16-7.2-16-16s7.2-16 16-16h32c26.5 0 48-21.5 48-48V176c0-26.5-21.5-48-48-48h-64c-8.8 0-16-7.2-16-16s7.2-16 16-16h64c44.1 0 80 35.9 80 80v704c0 44.1-35.9 80-80 80z" fill="#ffffff" p-id="3613"></path><path d="M752 336H272c-8.8 0-16-7.2-16-16s7.2-16 16-16h480c8.8 0 16 7.2 16 16s-7.2 16-16 16zM752 528H272c-8.8 0-16-7.2-16-16s7.2-16 16-16h480c8.8 0 16 7.2 16 16s-7.2 16-16 16z" fill="#ffffff" p-id="3614"></path><path d="M752 720H272c-8.8 0-16-7.2-16-16s7.2-16 16-16h480c8.8 0 16 7.2 16 16s-7.2 16-16 16z" fill="#ffffff" p-id="3615"></path><path d="M688 128c-8.8 0-16-7.2-16-16s-7.2-16-16-16H368c-8.8 0-16 7.2-16 16s-7.2 16-16 16-16-7.2-16-16c0-26.5 21.5-48 48-48h288c26.5 0 48 21.5 48 48 0 8.8-7.2 16-16 16z" fill="#ffffff" p-id="3616"></path></svg>