<?xml version="1.0" standalone="no"?><!DOCTYPE svg PUBLIC "-//W3C//DTD SVG 1.1//EN" "http://www.w3.org/Graphics/SVG/1.1/DTD/svg11.dtd"><svg t="1658381508001" class="icon" viewBox="0 0 1024 1024" version="1.1" xmlns="http://www.w3.org/2000/svg" p-id="1795" xmlns:xlink="http://www.w3.org/1999/xlink" width="10" height="10"><defs><style type="text/css">@font-face { font-family: feedback-iconfont; src: url("//at.alicdn.com/t/font_1031158_u69w8yhxdu.woff2?t=1630033759944") format("woff2"), url("//at.alicdn.com/t/font_1031158_u69w8yhxdu.woff?t=1630033759944") format("woff"), url("//at.alicdn.com/t/font_1031158_u69w8yhxdu.ttf?t=1630033759944") format("truetype"); }
</style></defs><path d="M295.4 364.99H550c19.51 0 35.34-15.81 35.34-35.3s-15.83-35.3-35.34-35.3H295.4c-19.51 0-35.34 15.81-35.34 35.3s15.83 35.3 35.34 35.3zM291.61 626.05h356.58c19.51 0 35.34-15.81 35.34-35.3s-15.83-35.3-35.34-35.3H291.61c-19.51 0-35.34 15.81-35.34 35.3s15.83 35.3 35.34 35.3z" p-id="1796" fill="#ffffff"></path><path d="M534.75 953.4H146.67V70.6h646.45v520.15c0 19.49 15.83 35.3 35.34 35.3 19.51 0 35.34-15.81 35.34-35.3V35.3c0-19.49-15.83-35.3-35.34-35.3H111.34C91.83 0 76 15.81 76 35.3v953.4c0 19.49 15.83 35.3 35.34 35.3h423.41c19.51 0 35.34-15.81 35.34-35.3s-15.83-35.3-35.34-35.3z" p-id="1797" fill="#ffffff"></path><path d="M937.66 832.78L850.98 746c-13.78-13.81-36.14-13.81-49.97-0.05-13.8 13.77-13.83 36.11-0.05 49.92l26.51 26.55h-201.6c-19.51 0-35.34 15.81-35.34 35.3s15.83 35.3 35.34 35.3h201.61l-26.51 26.55c-13.78 13.81-13.76 36.15 0.05 49.92a35.265 35.265 0 0 0 24.96 10.32c9.06 0 18.11-3.45 25.01-10.37l86.68-86.78c13.78-13.79 13.78-36.09-0.01-49.88z" p-id="1798" fill="#ffffff"></path></svg>