<svg t="1660200629330" class="icon" viewBox="0 0 1024 1024" version="1.1" xmlns="http://www.w3.org/2000/svg" p-id="4877" width="200" height="200"><path d="M875.52 589.312c-18.944-16.896-43.008-26.624-62.464-33.28l-1.536-0.512c-1.024-0.512-2.048-0.512-3.072-1.024l-115.712-26.624c-19.456-6.144-26.624-11.776-28.16-13.312V442.368c19.456-19.456 34.816-41.984 46.08-67.072 12.288-27.136 17.92-56.32 17.92-86.528 0-61.952-26.624-120.32-72.192-161.792-22.528-19.968-48.128-34.816-76.8-44.544-29.696-9.728-60.928-12.8-92.16-9.216-48.128 5.12-92.672 26.624-126.976 60.416-34.304 33.792-56.832 78.336-62.976 124.928-5.12 35.84-1.024 71.168 11.264 104.96 10.752 29.184 28.16 56.32 50.688 78.336v72.192c-1.536 1.536-7.168 7.168-27.648 13.312l-115.712 26.624c-1.024 0-1.536 0.512-2.048 0.512l-1.024 0.512c-26.624 8.192-47.104 18.944-62.464 32.768-23.552 20.992-36.864 49.664-36.864 80.896v130.56c0 18.432 15.36 33.792 33.792 33.792h730.112c18.432 0 33.792-15.36 33.792-33.792v-130.56c-0.512-31.232-12.8-58.88-35.84-79.36z m1.536 295.424H146.944c-18.432 0-33.792 15.36-33.792 33.792 0 18.432 15.36 33.792 33.792 33.792h730.112c18.432 0 33.792-15.36 33.792-33.792 0-18.432-15.36-33.792-33.792-33.792z m0 0" p-id="4878" fill="#ffffff"></path></svg>