<?xml version="1.0" standalone="no"?><!DOCTYPE svg PUBLIC "-//W3C//DTD SVG 1.1//EN" "http://www.w3.org/Graphics/SVG/1.1/DTD/svg11.dtd"><svg t="1660528182773" class="icon" viewBox="0 0 1024 1024" version="1.1" xmlns="http://www.w3.org/2000/svg" p-id="137145" xmlns:xlink="http://www.w3.org/1999/xlink" width="10" height="10"><defs><style type="text/css">@font-face { font-family: feedback-iconfont; src: url("//at.alicdn.com/t/font_1031158_u69w8yhxdu.woff2?t=1630033759944") format("woff2"), url("//at.alicdn.com/t/font_1031158_u69w8yhxdu.woff?t=1630033759944") format("woff"), url("//at.alicdn.com/t/font_1031158_u69w8yhxdu.ttf?t=1630033759944") format("truetype"); }
</style></defs><path d="M959.488 351.232v-1.024c0-1.536-0.512-2.56-1.024-4.096 0-0.512 0-0.512-0.512-1.024l-1.536-4.608v-0.512c-0.512-1.536-1.536-2.56-2.048-4.096 0-0.512-0.512-0.512-0.512-1.024-1.024-1.536-2.048-2.56-3.072-4.096l-153.6-184.32c-7.168-8.704-17.92-13.824-29.696-13.824H256c-11.264 0-22.016 5.12-29.696 13.824l-153.6 184.32c-1.024 1.024-2.048 2.56-3.072 4.096 0 0.512-0.512 0.512-0.512 1.024-1.024 1.536-1.536 2.56-2.048 4.096v0.512l-1.536 4.608c0 0.512 0 0.512-0.512 1.024-0.512 1.536-0.512 2.56-1.024 4.096v1.024c0 1.536-0.512 3.072-0.512 4.608v478.208c0 31.232 25.6 56.832 56.832 56.832h781.824c31.232 0 56.832-25.6 56.832-56.832V355.84c1.024-1.536 1.024-3.072 0.512-4.608zM273.92 209.92h476.16L839.68 317.44H184.32l89.6-107.52z m609.28 604.16h-742.4V394.24h742.4v419.84z" p-id="137146" fill="#ffffff"></path><path d="M314.88 726.528c20.992 0 38.4-17.408 38.4-38.4v-184.32c0-20.992-17.408-38.4-38.4-38.4S276.48 482.816 276.48 503.808v184.32c0 21.504 17.408 38.4 38.4 38.4zM524.8 726.528c20.992 0 38.4-17.408 38.4-38.4v-184.32c0-20.992-17.408-38.4-38.4-38.4S486.4 482.816 486.4 503.808v184.32c0 21.504 17.408 38.4 38.4 38.4zM729.6 726.528c20.992 0 38.4-17.408 38.4-38.4v-184.32c0-20.992-17.408-38.4-38.4-38.4s-38.4 17.408-38.4 38.4v184.32c0 21.504 17.408 38.4 38.4 38.4z" p-id="137147" fill="#ffffff"></path></svg>