<?xml version="1.0" standalone="no"?><!DOCTYPE svg PUBLIC "-//W3C//DTD SVG 1.1//EN" "http://www.w3.org/Graphics/SVG/1.1/DTD/svg11.dtd"><svg t="1655694628071" class="icon" viewBox="0 0 1024 1024" version="1.1" xmlns="http://www.w3.org/2000/svg" p-id="6274" width="200" height="200" xmlns:xlink="http://www.w3.org/1999/xlink"><defs><style type="text/css">@font-face { font-family: feedback-iconfont; src: url("//at.alicdn.com/t/font_1031158_u69w8yhxdu.woff2?t=1630033759944") format("woff2"), url("//at.alicdn.com/t/font_1031158_u69w8yhxdu.woff?t=1630033759944") format("woff"), url("//at.alicdn.com/t/font_1031158_u69w8yhxdu.ttf?t=1630033759944") format("truetype"); }
</style></defs><path d="M892.78 109.1H133.34a61.51 61.51 0 0 0-61.44 61.43v569.16a61.51 61.51 0 0 0 61.44 61.44h759.44a61.51 61.51 0 0 0 61.44-61.44V170.53a61.51 61.51 0 0 0-61.44-61.43z m20.48 630.59a20.5 20.5 0 0 1-20.48 20.48H133.34a20.5 20.5 0 0 1-20.48-20.48V170.53a20.5 20.5 0 0 1 20.48-20.47h759.44a20.5 20.5 0 0 1 20.48 20.47z" p-id="6275" fill="#ffffff"></path><path d="M759.48 230.34a73.91 73.91 0 0 0-73.82 73.82 73.09 73.09 0 0 0 15.83 45.12l-170 193.57L420 468.54a20.53 20.53 0 0 0-26.28 3L225.24 650.59a20.49 20.49 0 0 0 29.84 28.08l156.63-166.44 112 74.65a20.4 20.4 0 0 0 26.74-3.53l184.34-209.94a73.12 73.12 0 0 0 24.69 4.59 73.82 73.82 0 0 0 0-147.63z m0 106.67a32.86 32.86 0 1 1 32.84-32.85A32.89 32.89 0 0 1 759.48 337zM830.44 863.9H195.68a20.48 20.48 0 1 0 0 41h634.76a20.48 20.48 0 1 0 0-41z" p-id="6276" fill="#ffffff"></path></svg>