<svg t="1660099700431" class="icon" viewBox="0 0 1024 1024" version="1.1" xmlns="http://www.w3.org/2000/svg" p-id="4345" width="200" height="200"><path d="M235.306667 323.712m22.101333 0l284.288 0q22.101333 0 22.101333 22.101333l0-0.042666q0 22.101333-22.101333 22.101333l-284.288 0q-22.101333 0-22.101333-22.101333l0 0.042666q0-22.101333 22.101333-22.101333Z" fill="#ffffff" p-id="4346"></path><path d="M658.688 321.962667a24.832 24.832 0 0 0-22.869333 24.533333v1.664a23.722667 23.722667 0 1 0 47.402666-1.664v-1.664a24.96 24.96 0 0 0-24.533333-22.869333z" fill="#ffffff" p-id="4347"></path><path d="M879.274667 140.629333a94.464 94.464 0 0 0-58.837334-19.626666H308.906667a88.234667 88.234667 0 0 0-58.837334 19.626666 74.453333 74.453333 0 0 0-26.112 54.058667v35.797333h-16.341333a88.618667 88.618667 0 0 0-58.837333 19.541334 77.226667 77.226667 0 0 0-27.776 57.344v522.026666a69.077333 69.077333 0 0 0 26.112 53.930667 94.421333 94.421333 0 0 0 58.837333 19.626667h509.994667a88.064 88.064 0 0 0 58.837333-19.626667 76.117333 76.117333 0 0 0 27.776-53.930667v-26.069333h14.762667a88.234667 88.234667 0 0 0 58.837333-19.626667 74.368 74.368 0 0 0 26.197333-53.930666v-533.333334a62.549333 62.549333 0 0 0-23.04-55.466666z m-301.610667 620.672c-2.005333 42.666667-50.005333 42.666667-121.173333 42.666667s-119.168 0-121.173334-42.666667a126.037333 126.037333 0 0 1 47.914667-96.896 60.8 60.8 0 0 1 37.546667-17.066666h71.424a61.312 61.312 0 0 1 37.546666 17.066666 126.037333 126.037333 0 0 1 47.914667 96.896z m-190.634667-191.104a69.504 69.504 0 1 1 69.504 69.418667 69.504 69.504 0 0 1-69.504-69.418667z m359.936-172.757333h-569.685333v-75.349333c0-16.426667 2.176-35.626667 35.541333-35.626667H715.093333a34.688 34.688 0 0 1 32.042667 29.525333z m102.4 317.397333a46.549333 46.549333 0 0 1-16.256 27.050667 47.658667 47.658667 0 0 1-27.946666 5.674667h-2.517334v-440.32c0-29.866667-10.666667-75.264-89.6-75.264h-436.181333v-25.984a20.736 20.736 0 0 1 1.664-9.856 30.165333 30.165333 0 0 1 6.570667-8.192 46.933333 46.933333 0 0 1 34.133333-13.098667h478.549333c22.869333 0 51.2 13.098667 51.2 29.44z m0 0" fill="#ffffff" p-id="4348"></path></svg>