<?xml version="1.0" standalone="no"?><!DOCTYPE svg PUBLIC "-//W3C//DTD SVG 1.1//EN" "http://www.w3.org/Graphics/SVG/1.1/DTD/svg11.dtd"><svg t="1660737018817" class="icon" viewBox="0 0 1024 1024" version="1.1" xmlns="http://www.w3.org/2000/svg" p-id="33434" xmlns:xlink="http://www.w3.org/1999/xlink" width="10" height="10"><defs><style type="text/css">@font-face { font-family: feedback-iconfont; src: url("//at.alicdn.com/t/font_1031158_u69w8yhxdu.woff2?t=1630033759944") format("woff2"), url("//at.alicdn.com/t/font_1031158_u69w8yhxdu.woff?t=1630033759944") format("woff"), url("//at.alicdn.com/t/font_1031158_u69w8yhxdu.ttf?t=1630033759944") format("truetype"); }
</style></defs><path d="M940.1 185.3L707.4 71.9a77.53 77.53 0 0 0-34.1-7.9h-19.8c-0.7 0-1.5-0.1-2.2-0.1H372.7c-0.7 0-1.5 0-2.2 0.1h-19.1c-12.2 0-24.3 2.9-35.3 8.4L83.9 190.3C69 195.2 64 210.2 64 220.1v154.2c0 5 5 14.9 10 19.9 5 5 10 9.9 19.9 9.9l240-1.4v518.4c0 21.5 17.4 38.9 38.9 38.9h278.5c21.5 0 38.9-17.4 38.9-38.9V400.6l240-1.4c5 0 14.9-5 19.9-9.9 5-5 10-9.9 10-19.9V215.1c-0.1-14.9-10.1-24.8-20-29.8z m-530.3-45.2h204.3V325l-204.3 1.2V140.1zM140 327.8V247l193.8-98.3v177.9L140 327.8zM614.2 884H409.8v-87H504c21 0 38-17 38-38s-17-38-38-38h-94.2v-49H504c21 0 38-17 38-38s-17-38-38-38h-94.2v-49H504c21 0 38-17 38-38s-17-38-38-38h-94.2v-68.8l204.3-1.2v483zM884 323.4l-193.8 1.2V148.1L884 242.5v80.9z" p-id="33435" fill="#ffffff"></path></svg>