<?xml version="1.0" standalone="no"?><!DOCTYPE svg PUBLIC "-//W3C//DTD SVG 1.1//EN" "http://www.w3.org/Graphics/SVG/1.1/DTD/svg11.dtd"><svg t="1660527891091" class="icon" viewBox="0 0 1024 1024" version="1.1" xmlns="http://www.w3.org/2000/svg" p-id="121588" xmlns:xlink="http://www.w3.org/1999/xlink" width="10" height="10"><defs><style type="text/css">@font-face { font-family: feedback-iconfont; src: url("//at.alicdn.com/t/font_1031158_u69w8yhxdu.woff2?t=1630033759944") format("woff2"), url("//at.alicdn.com/t/font_1031158_u69w8yhxdu.woff?t=1630033759944") format("woff"), url("//at.alicdn.com/t/font_1031158_u69w8yhxdu.ttf?t=1630033759944") format("truetype"); }
</style></defs><path d="M862.3 162.1l-0.4-0.4c-34.2-34.2-77.1-49.7-125.6-49.7-66.9 0-144.4 29.6-224.3 80.9-79.8-51.3-157.4-80.9-224.3-80.9-48.5 0-91.5 15.6-125.6 49.7l-0.4 0.4c-81.3 81.3-57.3 212.2 31.2 349.9-88.5 137.7-112.4 268.6-31.2 349.9l0.4 0.4c34.2 34.2 77.1 49.7 125.6 49.7 66.9 0 144.4-29.6 224.3-80.9 79.8 51.3 157.4 80.9 224.3 80.9 48.5 0 91.5-15.6 125.6-49.7l0.4-0.4c81.3-81.3 57.3-212.2-31.2-349.9 88.5-137.7 112.4-268.6 31.2-349.9zM582 239.3c58.5-33.5 111.9-51.2 154.3-51.2 30.3 0 53.1 8.7 71.9 27.5l0.4 0.4c15.8 15.8 24.3 34.2 26.8 57.8 2.8 26.9-2.6 59.1-16 95.7-8.8 24-21 49.3-36.1 75.4-28.3-36.2-60.5-72.4-95.9-107.9-35.5-35.5-71.7-67.7-107.9-96 0.7-0.7 1.6-1.2 2.5-1.7zM738.8 512c-29.5 40.1-65 81.1-105.3 121.5-40.1 40.1-81.2 75.7-121.5 105.3-40.3-29.7-81.4-65.2-121.5-105.3-40.3-40.3-75.8-81.3-105.3-121.5 29.5-40.1 65-81.1 105.3-121.5 40.1-40.1 81.2-75.7 121.5-105.3 40.3 29.7 81.4 65.2 121.5 105.3 40.3 40.4 75.7 81.4 105.3 121.5zM204.7 369.3c-13.4-36.6-18.8-68.8-16-95.7 2.5-23.6 11-42 26.8-57.8l0.3-0.3c18.7-18.7 41.6-27.5 71.9-27.5 42.4 0 95.7 17.7 154.3 51.3 0.9 0.5 1.8 1 2.7 1.6-36.2 28.3-72.5 60.5-107.9 96-35.4 35.4-67.7 71.7-95.9 107.9-15.2-26.2-27.3-51.5-36.2-75.5zM442 784.7C383.5 818.3 330.1 836 287.7 836c-30.3 0-53.1-8.7-71.9-27.5l-0.4-0.4c-15.8-15.8-24.3-34.2-26.8-57.8-2.8-26.9 2.6-59.1 16-95.7 8.8-24 21-49.3 36.1-75.4 28.3 36.2 60.5 72.4 95.9 107.9 35.5 35.5 71.7 67.7 107.9 96-0.7 0.6-1.6 1.1-2.5 1.6z m377.3-130c13.4 36.6 18.8 68.8 16 95.7-2.5 23.6-11 42-26.7 57.7l-0.4 0.4c-18.7 18.7-41.6 27.5-71.9 27.5-42.4 0-95.7-17.7-154.3-51.3-0.9-0.5-1.8-1-2.7-1.6 36.2-28.3 72.5-60.5 107.9-96 35.4-35.4 67.7-71.7 95.9-107.9 15.2 26.2 27.3 51.5 36.2 75.5z" p-id="121589" fill="#ffffff"></path><path d="M512 447.5c-35.9 0-65 29.1-65 65s29.1 65 65 65 65-29.1 65-65-29.1-65-65-65z" p-id="121590" fill="#ffffff"></path></svg>