<?xml version="1.0" standalone="no"?><!DOCTYPE svg PUBLIC "-//W3C//DTD SVG 1.1//EN" "http://www.w3.org/Graphics/SVG/1.1/DTD/svg11.dtd"><svg t="1660737056409" class="icon" viewBox="0 0 1024 1024" version="1.1" xmlns="http://www.w3.org/2000/svg" p-id="33630" xmlns:xlink="http://www.w3.org/1999/xlink" width="10" height="10"><defs><style type="text/css">@font-face { font-family: feedback-iconfont; src: url("//at.alicdn.com/t/font_1031158_u69w8yhxdu.woff2?t=1630033759944") format("woff2"), url("//at.alicdn.com/t/font_1031158_u69w8yhxdu.woff?t=1630033759944") format("woff"), url("//at.alicdn.com/t/font_1031158_u69w8yhxdu.ttf?t=1630033759944") format("truetype"); }
</style></defs><path d="M550.4 909.65333333h-1.06666667c-10.13333333 0-19.52-3.73333333-26.77333333-10.02666666-29.97333333-18.66666667-148.37333333-94.93333333-249.17333333-196.69333334-15.78666667-15.89333333-15.57333333-41.6 0.32-57.28 15.89333333-15.78666667 41.6-15.57333333 57.28 0.32 81.28 82.02666667 177.6 148.16 219.30666666 175.25333334 37.33333333-23.36 118.29333333-77.12 194.24-148.05333334 89.6-83.73333333 190.82666667-209.17333333 164.05333334-331.94666666-16.96-78.08-65.6-122.98666667-148.58666667-137.17333334-47.04-8.10666667-95.04 6.93333333-127.04 21.01333334-25.38666667 11.09333333-44.8 23.36-53.76 29.44-7.46666667 7.57333333-17.70666667 12.05333333-28.8 12.05333333h-1.06666667c-11.09333333 0-21.33333333-4.48-28.8-11.94666667-21.44-14.4-102.29333333-64-180.8-50.45333333-81.06666667 13.97333333-129.70666667 59.09333333-148.8 138.13333333-1.49333333 6.29333333-2.66666667 12.69333333-3.30666666 19.2-2.45333333 22.29333333-22.4 38.29333333-44.69333334 35.94666667-22.29333333-2.45333333-38.4-22.4-35.94666666-44.69333333 1.06666667-9.92 2.77333333-19.84 5.12-29.54666667 26.77333333-110.72 100.69333333-179.52 213.86666666-198.93333333 93.33333333-16 182.08 27.62666667 223.89333334 52.90666666 41.92-25.28 130.56-69.01333333 223.89333333-52.90666666 115.94666667 19.94666667 189.97333333 89.06666667 214.08 199.89333333 15.78666667 72.42666667 1.92 149.01333333-41.17333333 227.62666667-32.74666667 59.73333333-82.45333333 120.85333333-147.84 181.76-95.36 88.85333333-195.2 150.61333333-222.4 166.82666666-7.14666667 5.86666667-16.21333333 9.28-26.02666667 9.28z" p-id="33631" fill="#ffffff"></path><path d="M513.06666667 666.45333333c-1.38666667 0-2.77333333-0.10666667-4.26666667-0.21333333-15.68-1.6-29.01333333-12.26666667-34.13333333-27.2l-65.06666667-190.29333333-39.68 77.33333333c-6.93333333 13.54666667-20.90666667 22.08-36.05333333 22.08H64c-22.4 0-40.53333333-18.13333333-40.53333333-40.53333333s18.13333333-40.53333333 40.53333333-40.53333334h245.12l71.89333333-140.05333333c7.46666667-14.50666667 22.72-23.14666667 38.93333334-21.97333333 16.21333333 1.17333333 30.18666667 11.94666667 35.41333333 27.30666666L523.09333333 530.13333333l20.26666667-33.81333333c7.25333333-12.16 20.26666667-19.62666667 34.45333333-19.73333333l128-1.06666667c22.4-0.21333333 40.64 17.81333333 40.85333334 40.21333333 0.21333333 22.4-17.81333333 40.64-40.21333334 40.85333334l-105.28 0.85333333-53.33333333 89.28c-7.36 12.37333333-20.58666667 19.73333333-34.77333333 19.73333333z" p-id="33632" fill="#ffffff"></path></svg>