<?xml version="1.0" standalone="no"?><!DOCTYPE svg PUBLIC "-//W3C//DTD SVG 1.1//EN" "http://www.w3.org/Graphics/SVG/1.1/DTD/svg11.dtd"><svg t="1660737080510" class="icon" viewBox="0 0 1024 1024" version="1.1" xmlns="http://www.w3.org/2000/svg" p-id="33827" xmlns:xlink="http://www.w3.org/1999/xlink" width="10" height="10"><defs><style type="text/css">@font-face { font-family: feedback-iconfont; src: url("//at.alicdn.com/t/font_1031158_u69w8yhxdu.woff2?t=1630033759944") format("woff2"), url("//at.alicdn.com/t/font_1031158_u69w8yhxdu.woff?t=1630033759944") format("woff"), url("//at.alicdn.com/t/font_1031158_u69w8yhxdu.ttf?t=1630033759944") format("truetype"); }
</style></defs><path d="M512 623.444488c-12.138783 0-24.751927-4.208436-34.567556-12.138783l-402.611078-224.652627c-2.797515-1.398758-5.607193-3.734075-7.468149-5.607193-21.480051-21.480051-21.480051-56.984167 0-78.464218 2.335317-2.335317 4.670634-4.196273 7.468149-5.607193L477.432444 72.309684c20.081293-16.347219 49.516018-16.347219 69.59731 0l402.136717 224.66479c2.809678 1.398758 5.607193 3.734075 7.480312 5.607193 21.480051 21.480051 21.480051 56.984167 0 78.464218-2.335317 2.335317-4.670634 4.208436-7.480312 5.607193l-402.136717 224.652627c-10.277827 7.930347-22.890972 12.138783-35.029754 12.138783zM512 964.400765c-12.138783 0-24.751927-4.208436-34.567556-12.150946L74.821366 727.597192c-16.809417-9.341268-22.890972-30.821319-13.53754-47.642899 9.341268-16.809417 30.821319-22.890972 47.642898-13.549703l402.611078 224.652627 402.611077-224.652627c16.82158-9.341268 38.301631-3.271876 47.642899 13.549703 9.341268 16.809417 3.271876 38.301631-13.549704 47.642899L546.093195 952.249819c-9.341268 7.94251-21.954412 12.150946-34.093195 12.150946z" p-id="33828" fill="#ffffff"></path><path d="M512 793.922626c-12.138783 0-24.751927-4.208436-34.567556-12.138783l-402.611078-224.652626c-16.809417-9.341268-22.890972-30.821319-13.53754-47.642899 9.341268-16.809417 30.821319-22.890972 47.642898-13.549704l402.611078 224.652627 402.611077-224.652627c16.82158-9.341268 38.301631-3.271876 47.642899 13.549704 9.341268 16.809417 3.271876 38.301631-13.549704 47.642899l-402.136716 224.652626c-9.353431 7.930347-21.966575 12.138783-34.105358 12.138783z m0 0" p-id="33829" fill="#ffffff"></path></svg>