<?xml version="1.0" standalone="no"?><!DOCTYPE svg PUBLIC "-//W3C//DTD SVG 1.1//EN" "http://www.w3.org/Graphics/SVG/1.1/DTD/svg11.dtd"><svg t="1660527941468" class="icon" viewBox="0 0 1024 1024" version="1.1" xmlns="http://www.w3.org/2000/svg" p-id="121785" xmlns:xlink="http://www.w3.org/1999/xlink" width="10" height="10"><defs><style type="text/css">@font-face { font-family: feedback-iconfont; src: url("//at.alicdn.com/t/font_1031158_u69w8yhxdu.woff2?t=1630033759944") format("woff2"), url("//at.alicdn.com/t/font_1031158_u69w8yhxdu.woff?t=1630033759944") format("woff"), url("//at.alicdn.com/t/font_1031158_u69w8yhxdu.ttf?t=1630033759944") format("truetype"); }
</style></defs><path d="M893.44 952.32h-768c-32.256 0-58.88-26.624-58.88-58.88v-768C66.56 93.184 93.184 66.56 125.44 66.56h768c32.256 0 58.88 26.624 58.88 58.88v768c0 32.256-26.624 58.88-58.88 58.88zM143.36 875.52h732.16V143.36H143.36v732.16z" p-id="121786" fill="#ffffff"></path><path d="M312.32 768c-20.992 0-38.4-17.408-38.4-38.4v-281.6c0-20.992 17.408-38.4 38.4-38.4s38.4 17.408 38.4 38.4v281.6c0 20.992-17.408 38.4-38.4 38.4zM501.76 768c-20.992 0-38.4-17.408-38.4-38.4v-435.2c0-20.992 17.408-38.4 38.4-38.4s38.4 17.408 38.4 38.4v435.2c0 20.992-17.408 38.4-38.4 38.4zM701.44 768c-20.992 0-38.4-17.408-38.4-38.4v-138.24c0-20.992 17.408-38.4 38.4-38.4s38.4 17.408 38.4 38.4v138.24c0 20.992-17.408 38.4-38.4 38.4z" p-id="121787" fill="#ffffff"></path></svg>