<?xml version="1.0" standalone="no"?><!DOCTYPE svg PUBLIC "-//W3C//DTD SVG 1.1//EN" "http://www.w3.org/Graphics/SVG/1.1/DTD/svg11.dtd"><svg t="1660737173376" class="icon" viewBox="0 0 1024 1024" version="1.1" xmlns="http://www.w3.org/2000/svg" p-id="34417" xmlns:xlink="http://www.w3.org/1999/xlink" width="10" height="10"><defs><style type="text/css">@font-face { font-family: feedback-iconfont; src: url("//at.alicdn.com/t/font_1031158_u69w8yhxdu.woff2?t=1630033759944") format("woff2"), url("//at.alicdn.com/t/font_1031158_u69w8yhxdu.woff?t=1630033759944") format("woff"), url("//at.alicdn.com/t/font_1031158_u69w8yhxdu.ttf?t=1630033759944") format("truetype"); }
</style></defs><path d="M528.01024 749.09696c0-125.86496 102.0416-227.90656 227.91168-227.90656a226.84672 226.84672 0 0 1 116.24448 31.88224l18.2016-30.06464V150.82496C887.2448 98.86208 844.6976 56.32 792.73984 56.32H202.17856C150.21568 56.32 104.5504 82.85696 104.5504 144.58368v737.3056c0 52.77184 45.66528 88.25856 97.62816 88.25856h417.50016l16.45056-27.16672c-64.88064-40.18688-108.11904-111.9744-108.11904-193.88416zM271.69792 245.3248h445.26592c26.02496 0 47.25248 21.22752 47.25248 47.2576 0 26.02496-21.22752 47.2576-47.25248 47.2576H271.69792c-26.01984 0-47.25248-21.23264-47.25248-47.2576 0-26.03008 21.23264-47.2576 47.25248-47.2576z m107.83232 528.72704h-114.0736c-26.02496 0-47.2576-21.22752-47.2576-47.2576 0-26.01472 21.23264-47.24736 47.2576-47.24736h114.07872c26.02496 0 47.25248 21.23264 47.25248 47.24736 0 26.03008-21.22752 47.2576-47.2576 47.2576z m97.6384-213.98528h-208.5888c-26.02496 0-47.25248-21.23264-47.25248-47.25248 0-26.03008 21.23264-47.25248 47.25248-47.25248h208.5888c26.01984 0 47.24736 21.2224 47.24736 47.25248-0.00512 26.02496-21.22752 47.25248-47.24736 47.25248z m0 0" p-id="34418" fill="#ffffff"></path><path d="M875.21792 853.4528c23.95136-27.74528 38.9376-63.43168 38.9376-102.91712 0-87.38304-70.85056-158.23872-158.23872-158.23872s-158.2336 70.85568-158.2336 158.23872 70.85056 158.2336 158.2336 158.2336c18.69824 0 36.31616-3.77856 53.00736-9.73824l37.70368 37.7088a39.552 39.552 0 0 0 55.936 0 39.53152 39.53152 0 0 0 0-55.936l-27.34592-27.35104z m0 0" p-id="34419" fill="#ffffff"></path></svg>