<?xml version="1.0" standalone="no"?><!DOCTYPE svg PUBLIC "-//W3C//DTD SVG 1.1//EN" "http://www.w3.org/Graphics/SVG/1.1/DTD/svg11.dtd"><svg t="1660527978573" class="icon" viewBox="0 0 1024 1024" version="1.1" xmlns="http://www.w3.org/2000/svg" p-id="121982" xmlns:xlink="http://www.w3.org/1999/xlink" width="10" height="10"><defs><style type="text/css">@font-face { font-family: feedback-iconfont; src: url("//at.alicdn.com/t/font_1031158_u69w8yhxdu.woff2?t=1630033759944") format("woff2"), url("//at.alicdn.com/t/font_1031158_u69w8yhxdu.woff?t=1630033759944") format("woff"), url("//at.alicdn.com/t/font_1031158_u69w8yhxdu.ttf?t=1630033759944") format("truetype"); }
</style></defs><path d="M512 626.24c-12.48 0-25.44-4.32-35.52-12.48L62.72 382.88c-2.88-1.44-5.76-3.84-7.68-5.76-22.08-22.08-22.08-58.56 0-80.64 2.4-2.4 4.8-4.32 7.68-5.76L476.48 59.84c20.64-16.8 50.88-16.8 71.52 0l413.28 230.88c2.88 1.44 5.76 3.84 7.68 5.76 22.08 22.08 22.08 58.56 0 80.64-2.4 2.4-4.8 4.32-7.68 5.76l-413.28 230.88c-10.56 8.16-23.52 12.48-36 12.48zM127.52 336.8l384.48 214.56 384.48-214.56L512 122.24 127.52 336.8z m816 14.88zM512 976.64c-12.48 0-25.44-4.32-35.52-12.48L62.72 733.28c-17.28-9.6-23.52-31.68-13.92-48.96 9.6-17.28 31.68-23.52 48.96-13.92l413.76 230.88 413.76-230.88c17.28-9.6 39.36-3.36 48.96 13.92 9.6 17.28 3.36 39.36-13.92 48.96l-413.28 230.88c-9.6 8.16-22.56 12.48-35.04 12.48z" p-id="121983" fill="#ffffff"></path><path d="M512 801.44c-12.48 0-25.44-4.32-35.52-12.48L62.72 558.08c-17.28-9.6-23.52-31.68-13.92-48.96 9.6-17.28 31.68-23.52 48.96-13.92l413.76 230.88 413.76-230.88c17.28-9.6 39.36-3.36 48.96 13.92 9.6 17.28 3.36 39.36-13.92 48.96l-413.28 230.88c-9.6 8.16-22.56 12.48-35.04 12.48z" p-id="121984" fill="#ffffff"></path></svg>