<?xml version="1.0" standalone="no"?><!DOCTYPE svg PUBLIC "-//W3C//DTD SVG 1.1//EN" "http://www.w3.org/Graphics/SVG/1.1/DTD/svg11.dtd"><svg t="1660527865134" class="icon" viewBox="0 0 1024 1024" version="1.1" xmlns="http://www.w3.org/2000/svg" p-id="121390" xmlns:xlink="http://www.w3.org/1999/xlink" width="10" height="10"><defs><style type="text/css">@font-face { font-family: feedback-iconfont; src: url("//at.alicdn.com/t/font_1031158_u69w8yhxdu.woff2?t=1630033759944") format("woff2"), url("//at.alicdn.com/t/font_1031158_u69w8yhxdu.woff?t=1630033759944") format("woff"), url("//at.alicdn.com/t/font_1031158_u69w8yhxdu.ttf?t=1630033759944") format("truetype"); }
</style></defs><path d="M512 140c50.3 0 99 9.8 144.8 29.2 44.3 18.7 84.1 45.6 118.3 79.8 34.2 34.2 61 74 79.8 118.3C874.2 413 884 461.7 884 512s-9.8 99-29.2 144.8c-18.7 44.3-45.6 84.1-79.8 118.3-34.2 34.2-74 61-118.3 79.8C611 874.2 562.3 884 512 884s-99-9.8-144.8-29.2c-44.3-18.7-84.1-45.6-118.3-79.8-34.2-34.2-61-74-79.8-118.3C149.8 611 140 562.3 140 512s9.8-99 29.2-144.8c18.7-44.3 45.6-84.1 79.8-118.3 34.2-34.2 74-61 118.3-79.8C413 149.8 461.7 140 512 140m0-76C264.6 64 64 264.6 64 512s200.6 448 448 448 448-200.6 448-448S759.4 64 512 64z" p-id="121391" fill="#ffffff"></path><path d="M512 392c57.3 0 104 46.7 104 104s-46.7 104-104 104-104-46.7-104-104 46.7-104 104-104m0-76c-99.4 0-180 80.6-180 180s80.6 180 180 180 180-80.6 180-180-80.6-180-180-180z" p-id="121392" fill="#ffffff"></path><path d="M512 679c29.1 0 57.9 3.8 85.7 11.4 26.9 7.3 52.7 18.2 76.9 32.2 31.3 18.2 59.3 41.6 82.9 68.9C690 850.8 603.2 884 512 884s-178-33.2-245.5-92.5c23.6-27.3 51.6-50.7 82.9-68.9 24.2-14 50-24.9 76.9-32.2 27.8-7.6 56.6-11.4 85.7-11.4m0-76c-146.4 0-274.4 78.6-344.1 195.9C250.1 897.4 373.7 960 512 960s261.9-62.6 344.1-161.1C786.4 681.6 658.4 603 512 603z" p-id="121393" fill="#ffffff"></path></svg>