<?xml version="1.0" standalone="no"?><!DOCTYPE svg PUBLIC "-//W3C//DTD SVG 1.1//EN" "http://www.w3.org/Graphics/SVG/1.1/DTD/svg11.dtd"><svg t="1660528344686" class="icon" viewBox="0 0 1024 1024" version="1.1" xmlns="http://www.w3.org/2000/svg" p-id="137342" xmlns:xlink="http://www.w3.org/1999/xlink" width="10" height="10"><defs><style type="text/css">@font-face { font-family: feedback-iconfont; src: url("//at.alicdn.com/t/font_1031158_u69w8yhxdu.woff2?t=1630033759944") format("woff2"), url("//at.alicdn.com/t/font_1031158_u69w8yhxdu.woff?t=1630033759944") format("woff"), url("//at.alicdn.com/t/font_1031158_u69w8yhxdu.ttf?t=1630033759944") format("truetype"); }
</style></defs><path d="M 934.4 876.032 h -844.8 c -20.992 0 -38.4 17.408 -38.4 38.4 s 17.408 38.4 38.4 38.4 h 844.8 c 20.992 0 38.4 -17.408 38.4 -38.4 s -17.408 -38.4 -38.4 -38.4 Z M 215.552 415.232 h -51.2 c -56.32 0 -102.4 46.08 -102.4 102.4 v 194.56 c 0 56.32 46.08 102.4 102.4 102.4 h 51.2 c 56.32 0 102.4 -46.08 102.4 -102.4 v -194.56 c 0 -56.832 -46.08 -102.4 -102.4 -102.4 Z m 25.6 271.36 c 0 28.16 -23.04 51.2 -51.2 51.2 s -51.2 -23.04 -51.2 -51.2 v -143.36 c 0 -28.16 23.04 -51.2 51.2 -51.2 s 51.2 23.04 51.2 51.2 v 143.36 Z M 538.112 67.072 h -51.2 c -56.32 0 -102.4 46.08 -102.4 102.4 v 542.72 c 0 56.32 46.08 102.4 102.4 102.4 h 51.2 c 56.32 0 102.4 -46.08 102.4 -102.4 v -542.72 c 0 -56.832 -46.08 -102.4 -102.4 -102.4 Z m 25.6 619.52 c 0 28.16 -23.04 51.2 -51.2 51.2 s -51.2 -23.04 -51.2 -51.2 v -491.52 c 0 -28.16 23.04 -51.2 51.2 -51.2 s 51.2 23.04 51.2 51.2 v 491.52 Z M 860.672 225.792 h -51.2 c -56.32 0 -102.4 46.08 -102.4 102.4 v 384 c 0 56.32 46.08 102.4 102.4 102.4 h 51.2 c 56.32 0 102.4 -46.08 102.4 -102.4 v -384 c 0 -56.832 -46.08 -102.4 -102.4 -102.4 Z m 25.6 460.8 c 0 28.16 -23.04 51.2 -51.2 51.2 s -51.2 -23.04 -51.2 -51.2 v -332.8 c 0 -28.16 23.04 -51.2 51.2 -51.2 s 51.2 23.04 51.2 51.2 v 332.8 Z" p-id="137343" fill="#ffffff"></path></svg>