<?xml version="1.0" standalone="no"?><!DOCTYPE svg PUBLIC "-//W3C//DTD SVG 1.1//EN" "http://www.w3.org/Graphics/SVG/1.1/DTD/svg11.dtd"><svg t="1660527790097" class="icon" viewBox="0 0 1024 1024" version="1.1" xmlns="http://www.w3.org/2000/svg" p-id="121194" xmlns:xlink="http://www.w3.org/1999/xlink" width="10" height="10"><defs><style type="text/css">@font-face { font-family: feedback-iconfont; src: url("//at.alicdn.com/t/font_1031158_u69w8yhxdu.woff2?t=1630033759944") format("woff2"), url("//at.alicdn.com/t/font_1031158_u69w8yhxdu.woff?t=1630033759944") format("woff"), url("//at.alicdn.com/t/font_1031158_u69w8yhxdu.ttf?t=1630033759944") format("truetype"); }
</style></defs><path d="M321.536 59.904c-7.168-7.168-16.896-11.264-27.136-11.264s-19.968 4.096-27.136 11.264L49.664 277.504c-7.168 7.168-11.264 16.896-11.264 27.136s4.096 19.968 11.264 27.136l217.088 217.088c7.68 7.68 17.408 11.264 27.136 11.264s19.456-3.584 27.136-11.264l217.088-217.088c14.848-14.848 14.848-39.424 0-54.272L321.536 59.904z m-27.136 407.552L131.072 304.64l162.816-162.816 162.816 162.816-162.304 162.816zM936.96 115.2h-307.2c-20.992 0-38.4 17.408-38.4 38.4v307.2c0 20.992 17.408 38.4 38.4 38.4h307.2c20.992 0 38.4-17.408 38.4-38.4V153.6c0-21.504-17.408-38.4-38.4-38.4z m-38.4 307.2h-230.4v-230.4h230.4v230.4zM448 588.8h-307.2c-20.992 0-38.4 17.408-38.4 38.4v307.2c0 20.992 17.408 38.4 38.4 38.4h307.2c20.992 0 38.4-17.408 38.4-38.4v-307.2c0-21.504-17.408-38.4-38.4-38.4zM409.6 896H179.2v-230.4h230.4v230.4zM936.96 591.36h-307.2c-20.992 0-38.4 17.408-38.4 38.4v307.2c0 20.992 17.408 38.4 38.4 38.4h307.2c20.992 0 38.4-17.408 38.4-38.4v-307.2c0-21.504-17.408-38.4-38.4-38.4z m-38.4 307.2h-230.4v-230.4h230.4v230.4z" p-id="121195" fill="#ffffff"></path></svg>