<?xml version="1.0" standalone="no"?><!DOCTYPE svg PUBLIC "-//W3C//DTD SVG 1.1//EN" "http://www.w3.org/Graphics/SVG/1.1/DTD/svg11.dtd"><svg t="1660527378297" class="icon" viewBox="0 0 1024 1024" version="1.1" xmlns="http://www.w3.org/2000/svg" p-id="90734" xmlns:xlink="http://www.w3.org/1999/xlink" width="10" height="10"><defs><style type="text/css">@font-face { font-family: feedback-iconfont; src: url("//at.alicdn.com/t/font_1031158_u69w8yhxdu.woff2?t=1630033759944") format("woff2"), url("//at.alicdn.com/t/font_1031158_u69w8yhxdu.woff?t=1630033759944") format("woff"), url("//at.alicdn.com/t/font_1031158_u69w8yhxdu.ttf?t=1630033759944") format("truetype"); }
</style></defs><path d="M860.868379 383.636627l-247.105726-113.725071V111.560038c0-18.597394-8.502013-36.136597-22.854482-47.825346-14.875483-11.688748-33.472877-15.945836-51.547257-11.688748L167.364383 138.124268C139.729798 144.5099 120.074214 168.945587 120.074214 197.650524v716.346316c0 33.472877 27.634584 61.107461 61.119624 61.107461H842.806162c33.48504 0 61.119624-27.634584 61.119624-61.107461V442.09253c-0.54734-27.099407-18.086543-50.476903-43.057407-58.455903zM419.785388 589.825654H302.885745c-21.784129 0-39.858509-18.062217-39.858509-39.858509 0-21.784129 18.07438-39.858509 39.858509-39.858508h116.911806c21.784129 0 39.858509 18.062217 39.858509 39.858508-0.012163 21.796292-18.07438 39.858509-39.870672 39.858509z m0-201.931939H302.885745c-21.784129 0-39.858509-18.07438-39.858509-39.858509 0-21.784129 18.07438-39.858509 39.858509-39.858508h116.911806c21.784129 0 39.858509 18.07438 39.858509 39.858508-0.012163 21.784129-18.07438 39.858509-39.870672 39.858509z m403.87604 507.493568H613.762653V358.130587l209.910939 96.185868v441.070828z" p-id="90735" fill="#ffffff"></path></svg>