<svg t="1660114251308" class="icon" viewBox="0 0 1024 1024" version="1.1" xmlns="http://www.w3.org/2000/svg" p-id="17830" width="200" height="200"><path d="M802.62384197 282.53146075c10.09739852 0 20.19479703-3.75416098 28.0914805-11.65084444l52.55825383-52.55825383c15.40500543-15.40500543 15.40500543-40.77795555 0-56.18296099-15.40500543-15.40500543-40.77795555-15.40500543-56.18296099 0l-52.55825383 52.55825382c-15.40500543 15.40500543-15.40500543 40.77795555 0 56.182961 7.89668347 8.02613728 17.99408197 11.65084445 28.09148049 11.65084444zM510.96436939 166.41137779c21.74824297 0 39.74232494-17.99408197 39.74232492-39.74232495V52.49200987c0-21.74824297-17.99408197-39.74232494-39.74232492-39.74232492-21.74824297 0-39.74232494 17.99408197-39.74232494 39.74232492v74.17704297c0 21.74824297 17.99408197 39.74232494 39.74232494 39.74232495z m-320.26876841 104.46923852c7.89668347 7.89668347 17.99408197 11.65084445 28.0914805 11.65084444 10.09739852 0 20.19479703-3.75416098 28.09148049-11.65084444 15.40500543-15.40500543 15.40500543-40.77795555 0-56.182961l-51.91098469-52.55825382c-15.40500543-15.40500543-40.77795555-15.40500543-56.18296098 0-15.40500543 15.40500543-15.40500543 40.77795555 0 56.18296099l51.91098468 52.55825383z m673.54826272 511.98988642H157.94378272c-29.51547259 4.14252247-52.55825383 29.77438025-52.55825383 60.32548344v23.04278125c0 33.39908741 27.57366518 60.97275259 60.97275259 60.97275259h689.34162963c33.39908741 0 60.97275259-27.57366518 60.97275259-60.97275259v-23.04278125c0-30.93946469-23.04278124-56.18296098-52.4288-60.32548344z m-674.06607801-79.6141037H831.75095309V524.35120987c0-177.09283555-143.69374815-320.7865837-320.7865837-320.7865837s-320.7865837 143.69374815-320.7865837 320.7865837v178.90518916z m329.33053628-322.5989373c6.86105283-20.71261235 29.64492642-31.84564148 50.35753878-24.98458864 50.35753876 16.95845136 91.78276347 55.14733037 111.84810666 103.95142322 8.54395259 20.19479703-1.03563061 43.49648592-21.23042766 51.91098468-4.78979161 2.07126124-10.09739852 3.23634569-15.40500544 3.23634568-15.40500543 0-30.16274173-9.0617679-36.63543307-24.3373195-11.65084445-28.0914805-34.95253333-49.83972347-64.20909827-59.41930666-20.45370469-6.86105283-31.58673383-29.64492642-24.725681-50.35753878z" p-id="17831" fill="#ffffff"></path></svg>