<?xml version="1.0" encoding="utf-8"?>
<!-- Generator: Adobe Illustrator 24.0.0, SVG Export Plug-In . SVG Version: 6.00 Build 0)  -->
<svg version="1.1" id="图层_1" xmlns="http://www.w3.org/2000/svg" xmlns:xlink="http://www.w3.org/1999/xlink" x="0px" y="0px"
	 viewBox="0 0 256 170" style="enable-background:new 0 0 256 170;" xml:space="preserve">
<style type="text/css">
	.st0{fill-rule:evenodd;clip-rule:evenodd;fill:#F5F6F9;}
	.st1{fill-rule:evenodd;clip-rule:evenodd;fill:#B9CDF8;}
	.st2{fill:none;stroke:#FFFFFF;stroke-width:1.696;}
	.st3{fill-rule:evenodd;clip-rule:evenodd;fill:#FFFFFF;}
	.st4{fill-rule:evenodd;clip-rule:evenodd;fill:#CACFD9;}
	.st5{fill:none;stroke:url(#路径_5_);stroke-width:3;}
	.st6{fill-rule:evenodd;clip-rule:evenodd;fill:#D0D7E7;}
	.st7{fill:none;stroke:url(#路径备份-2_1_);stroke-width:2.7753;}
	.st8{fill-rule:evenodd;clip-rule:evenodd;fill:#CBD5E9;}
	.st9{fill:none;stroke:#E0E4ED;stroke-linecap:round;}
</style>
<title>编组 3</title>
<desc>Created with Sketch.</desc>
<g id="页面-1">
	<g id="桌面端-HD备份" transform="translate(-556.000000, -260.000000)">
		<g id="编组-5" transform="translate(556.000000, 260.000000)">
			<g id="编组-3">
				<g id="编组-3备份" transform="translate(65.833333, 44.166667)">
					<g id="编组-4" transform="translate(0.565345, 0.231278)">
						<path id="路径" class="st0" d="M0.3,12.8v89.1c0,3.3,2.7,6,6,6h110.6c3.3,0,6-2.7,6-6V12.8c0-3.3-2.7-6-6-6H6.3
							C3,6.8,0.3,9.5,0.3,12.8z"/>
						<path id="路径_1_" class="st1" d="M6.3,6.8h110.6c3.3,0,6,2.7,6,6c0,0,0,0,0,0l-0.1,8.6l0,0H0.3v-8.6C0.3,9.5,3,6.8,6.3,6.8
							z"/>
						<path id="路径_2_" class="st2" d="M111.2,16.3c1.2,0,2.2-1,2.2-2.2c0-1.2-1-2.2-2.2-2.2c-1.2,0-2.2,1-2.2,2.2
							C109,15.3,110,16.3,111.2,16.3z"/>
						<path id="路径_3_" class="st3" d="M98.1,16.4c0.3,0.3,0.7,0.3,1,0l1.4-1.4l1.4,1.4c0.3,0.3,0.7,0.3,1,0c0.3-0.3,0.3-0.7,0-1
							l-1.4-1.4l1.4-1.4c0.3-0.3,0.3-0.7,0-1c-0.3-0.3-0.7-0.3-1,0l-1.4,1.4l-1.4-1.4c-0.3-0.3-0.7-0.3-1,0c-0.3,0.3-0.3,0.7,0,1
							l1.4,1.4l-1.4,1.4C97.8,15.7,97.8,16.2,98.1,16.4z"/>
						<path id="路径-6" class="st4" d="M61.4,41.6c6.1,0,11,4.9,11,10.8l0,0h3.7c2,0,3.7,1.6,3.7,3.6l0,0v25.3
							c0,2-1.7,3.6-3.7,3.6l0,0H46.7c-2,0-3.7-1.6-3.7-3.6l0,0V56c0-2,1.7-3.6,3.7-3.6l0,0h3.7C50.4,46.4,55.4,41.6,61.4,41.6z
							 M61.3,60.5c-2.6,0-4.6,2-4.6,4.5c0.1,1.9,1.3,3.5,2.9,4.2l-2.3,5.3c-0.3,1.2,0.6,2.3,1.7,2.3h4.5c1.2,0,2.1-1.1,1.7-2.3
							l-2.3-5.3c1.6-0.6,2.8-2.3,2.8-4.2C65.9,62.5,63.9,60.5,61.3,60.5z M61.4,45.2c-4,0-7.3,3.2-7.3,7.2l0,0h14.7
							C68.7,48.4,65.4,45.2,61.4,45.2z"/>
					</g>
				</g>
				
					<linearGradient id="路径_5_" gradientUnits="userSpaceOnUse" x1="-1045.9417" y1="628.9661" x2="-1045.9417" y2="627.9752" gradientTransform="matrix(5.3333 0 0 -5.3333 5582.8335 3509.4963)">
					<stop  offset="0" style="stop-color:#E3E7EF"/>
					<stop  offset="1" style="stop-color:#E1E6F0"/>
				</linearGradient>
				<path id="路径_4_" class="st5" d="M4.5,155c-1.5,0-2.7,1.2-2.7,2.7c0,1.5,1.2,2.7,2.7,2.7c1.5,0,2.7-1.2,2.7-2.7
					C7.1,156.2,5.9,155,4.5,155z"/>
				<path id="Fill-7" class="st6" d="M60.6,10h-2.7V7.3c0-0.3-0.2-0.5-0.5-0.5c-0.3,0-0.5,0.2-0.5,0.5V10h-2.7
					c-0.3,0-0.5,0.2-0.5,0.5c0,0.3,0.2,0.5,0.5,0.5h2.7v2.7c0,0.3,0.2,0.5,0.5,0.5c0.3,0,0.5-0.2,0.5-0.5v-2.7h2.7
					c0.3,0,0.5-0.2,0.5-0.5C61.1,10.2,60.9,10,60.6,10z"/>
				
					<linearGradient id="路径备份-2_1_" gradientUnits="userSpaceOnUse" x1="-956.4288" y1="589.3154" x2="-956.4288" y2="588.3154" gradientTransform="matrix(3.8913 0 0 -3.8913 3948.7698 2419.7432)">
					<stop  offset="0" style="stop-color:#E2E5EB"/>
					<stop  offset="1" style="stop-color:#E6E8ED"/>
				</linearGradient>
				<path id="路径备份-2" class="st7" d="M227,126.5c-1.1,0-1.9,0.9-1.9,1.9c0,1.1,0.9,1.9,1.9,1.9c1.1,0,1.9-0.9,1.9-1.9
					C228.9,127.4,228,126.5,227,126.5z"/>
				<path id="路径备份-3" class="st8" d="M170.7,34.3c-1.1,0-2.1,0.9-2.1,2.1c0,1.1,0.9,2.1,2.1,2.1c1.1,0,2.1-0.9,2.1-2.1
					C172.8,35.2,171.9,34.3,170.7,34.3z"/>
				<g id="编组" transform="translate(152.500000, 159.166667)">
					<line id="路径-2" class="st9" x1="2.4" y1="6.8" x2="2.4" y2="9.8"/>
					<line id="路径-2备份" class="st9" x1="0.9" y1="8.3" x2="3.9" y2="8.3"/>
				</g>
			</g>
		</g>
	</g>
</g>
</svg>
